<svg width="51" height="51" viewBox="0 0 51 51" fill="none" xmlns="http://www.w3.org/2000/svg">
<circle cx="25.5" cy="25.5" r="24" fill="white" stroke="#FE902F" stroke-width="3"/>
<path d="M35.25 22.25H28.75V15.75C28.75 14.888 28.4076 14.0614 27.7981 13.4519C27.1886 12.8424 26.362 12.5 25.5 12.5C24.638 12.5 23.8114 12.8424 23.2019 13.4519C22.5924 14.0614 22.25 14.888 22.25 15.75L22.3654 22.25H15.75C14.888 22.25 14.0614 22.5924 13.4519 23.2019C12.8424 23.8114 12.5 24.638 12.5 25.5C12.5 26.362 12.8424 27.1886 13.4519 27.7981C14.0614 28.4076 14.888 28.75 15.75 28.75L22.3654 28.6346L22.25 35.25C22.25 36.112 22.5924 36.9386 23.2019 37.5481C23.8114 38.1576 24.638 38.5 25.5 38.5C26.362 38.5 27.1886 38.1576 27.7981 37.5481C28.4076 36.9386 28.75 36.112 28.75 35.25V28.6346L35.25 28.75C36.112 28.75 36.9386 28.4076 37.5481 27.7981C38.1576 27.1886 38.5 26.362 38.5 25.5C38.5 24.638 38.1576 23.8114 37.5481 23.2019C36.9386 22.5924 36.112 22.25 35.25 22.25Z" fill="#FE902F"/>
</svg>
