<svg width="17" height="29" viewBox="0 0 17 29" fill="none" xmlns="http://www.w3.org/2000/svg">
<path fill-rule="evenodd" clip-rule="evenodd" d="M0.634371 15.982C0.228184 15.5756 0 15.0246 0 14.4501C0 13.8756 0.228184 13.3246 0.634371 12.9183L12.8912 0.661458C13.0911 0.454519 13.3302 0.289458 13.5945 0.175905C13.8588 0.062352 14.1431 0.00258174 14.4308 8.18055e-05C14.7185 -0.00241813 15.0038 0.0524028 15.2701 0.161345C15.5364 0.270287 15.7783 0.431168 15.9817 0.634603C16.1852 0.838037 16.346 1.07995 16.455 1.34622C16.5639 1.6125 16.6187 1.89781 16.6162 2.18549C16.6137 2.47318 16.554 2.75749 16.4404 3.02183C16.3269 3.28618 16.1618 3.52526 15.9549 3.72512L5.22987 14.4501L15.9549 25.1751C16.3495 25.5838 16.5679 26.1311 16.563 26.6992C16.5581 27.2673 16.3302 27.8107 15.9285 28.2124C15.5268 28.6141 14.9833 28.842 14.4152 28.8469C13.8471 28.8519 13.2998 28.6335 12.8912 28.2388L0.634371 15.982Z" fill="#9C9CA1"/>
</svg>
