<svg width="34" height="36" viewBox="0 0 34 36" fill="none" xmlns="http://www.w3.org/2000/svg">
<rect width="34" height="36" fill="#F5F5F5"/>
<path d="M-2739 -6473C-2739 -6474.1 -2738.1 -6475 -2737 -6475H25500C25501.1 -6475 25502 -6474.1 25502 -6473V11478C25502 11479.1 25501.1 11480 25500 11480H-2737C-2738.1 11480 -2739 11479.1 -2739 11478V-6473Z" fill="white"/>
<path d="M-2737 -6474H25500V-6476H-2737V-6474ZM25501 -6473V11478H25503V-6473H25501ZM25500 11479H-2737V11481H25500V11479ZM-2738 11478V-6473H-2740V11478H-2738ZM-2737 11479C-2737.55 11479 -2738 11478.6 -2738 11478H-2740C-2740 11479.7 -2738.66 11481 -2737 11481V11479ZM25501 11478C25501 11478.6 25500.6 11479 25500 11479V11481C25501.7 11481 25503 11479.7 25503 11478H25501ZM25500 -6474C25500.6 -6474 25501 -6473.55 25501 -6473H25503C25503 -6474.66 25501.7 -6476 25500 -6476V-6474ZM-2737 -6476C-2738.66 -6476 -2740 -6474.66 -2740 -6473H-2738C-2738 -6473.55 -2737.55 -6474 -2737 -6474V-6476Z" fill="black" fill-opacity="0.1"/>
<path d="M-1785 -2114C-1785 -2115.1 -1784.1 -2116 -1783 -2116H13336C13337.1 -2116 13338 -2115.1 13338 -2114V9621C13338 9622.1 13337.1 9623 13336 9623H-1783C-1784.1 9623 -1785 9622.1 -1785 9621V-2114Z" fill="#B6B5B5"/>
<path d="M-1783 -2115H13336V-2117H-1783V-2115ZM13337 -2114V9621H13339V-2114H13337ZM13336 9622H-1783V9624H13336V9622ZM-1784 9621V-2114H-1786V9621H-1784ZM-1783 9622C-1783.55 9622 -1784 9621.55 -1784 9621H-1786C-1786 9622.66 -1784.66 9624 -1783 9624V9622ZM13337 9621C13337 9621.55 13336.6 9622 13336 9622V9624C13337.7 9624 13339 9622.66 13339 9621H13337ZM13336 -2115C13336.6 -2115 13337 -2114.55 13337 -2114H13339C13339 -2115.66 13337.7 -2117 13336 -2117V-2115ZM-1783 -2117C-1784.66 -2117 -1786 -2115.66 -1786 -2114H-1784C-1784 -2114.55 -1783.55 -2115 -1783 -2115V-2117Z" fill="black" fill-opacity="0.1"/>
<rect width="1920" height="1080" transform="translate(-1629 -26)" fill="white"/>
<rect width="1920" height="88" transform="translate(-1629 -26)" fill="#FFFDFB"/>
<path fill-rule="evenodd" clip-rule="evenodd" d="M13.1464 0.840554C12.8308 1.15668 12.5727 2.26635 12.5727 3.30713C12.5727 4.40221 12.3985 5.14989 11.7318 5.14989C9.88219 5.14989 5.64905 7.54432 4.44998 10.4186C3.84317 11.8744 2.86369 16.9588 2.86369 19.5073C2.86369 23.0478 2.47613 24.5555 1.22286 25.8921C0.239007 26.941 -0.212464 28.1804 0.0957988 28.9845C0.54727 30.1631 2.35396 30.326 15 30.326C27.646 30.326 29.4527 30.1631 29.9042 28.9845C30.2125 28.1804 29.761 26.941 28.7771 25.8921C27.5239 24.5555 27.1363 23.0478 27.1363 19.5073C27.1363 16.9588 26.9022 13.6825 26.2953 12.2267C25.4863 8.79747 20.4363 5.1982 18.6328 5.1982C18.0284 5.1982 17.9407 3.13399 17.7999 1.90759C17.5491 -0.277712 14.5016 -0.517157 13.1464 0.840554ZM10.9546 33.0009C10.9546 34.6869 12.7265 36 15 36C17.2735 36 19.0454 34.6869 19.0454 33.0009C19.0454 32.277 17.78 31.9471 15 31.9471C12.22 31.9471 10.9546 32.277 10.9546 33.0009Z" fill="#FF8A00"/>
<g filter="url(#filter0_d_0_1)">
<circle cx="25.5" cy="8.5" r="4.5" fill="#FFDB1C"/>
</g>
<defs>
<filter id="filter0_d_0_1" x="17" y="4" width="17" height="17" filterUnits="userSpaceOnUse" color-interpolation-filters="sRGB">
<feFlood flood-opacity="0" result="BackgroundImageFix"/>
<feColorMatrix in="SourceAlpha" type="matrix" values="0 0 0 0 0 0 0 0 0 0 0 0 0 0 0 0 0 0 127 0" result="hardAlpha"/>
<feOffset dy="4"/>
<feGaussianBlur stdDeviation="2"/>
<feComposite in2="hardAlpha" operator="out"/>
<feColorMatrix type="matrix" values="0 0 0 0 0 0 0 0 0 0 0 0 0 0 0 0 0 0 0.25 0"/>
<feBlend mode="normal" in2="BackgroundImageFix" result="effect1_dropShadow_0_1"/>
<feBlend mode="normal" in="SourceGraphic" in2="effect1_dropShadow_0_1" result="shape"/>
</filter>
</defs>
</svg>
