<svg width="31" height="31" viewBox="0 0 31 31" fill="none" xmlns="http://www.w3.org/2000/svg">
<g id="ion:calendar">
<path id="Vector" d="M29.0625 7.74991C29.0625 6.7222 28.6542 5.73658 27.9275 5.00987C27.2008 4.28317 26.2152 3.87491 25.1875 3.87491H24.2188V2.93341C24.2188 2.4121 23.8179 1.96466 23.2966 1.93862C23.1656 1.93231 23.0347 1.95266 22.9118 1.99843C22.789 2.04421 22.6766 2.11446 22.5817 2.20492C22.4868 2.29538 22.4112 2.40418 22.3595 2.52472C22.3079 2.64526 22.2813 2.77503 22.2812 2.90616V3.87491H8.71875V2.93341C8.71875 2.4121 8.31793 1.96466 7.79662 1.93862C7.66564 1.93231 7.53474 1.95266 7.41185 1.99843C7.28896 2.04421 7.17664 2.11446 7.08171 2.20492C6.98677 2.29538 6.91119 2.40418 6.85954 2.52472C6.8079 2.64526 6.78126 2.77503 6.78125 2.90616V3.87491H5.8125C4.78479 3.87491 3.79916 4.28317 3.07246 5.00987C2.34576 5.73658 1.9375 6.7222 1.9375 7.74991V8.47647C1.9375 8.54071 1.96302 8.60231 2.00844 8.64773C2.05385 8.69315 2.11546 8.71866 2.17969 8.71866H28.8203C28.8845 8.71866 28.9461 8.69315 28.9916 8.64773C29.037 8.60231 29.0625 8.54071 29.0625 8.47647V7.74991ZM1.9375 25.1874C1.9375 26.2151 2.34576 27.2007 3.07246 27.9274C3.79916 28.6542 4.78479 29.0624 5.8125 29.0624H25.1875C26.2152 29.0624 27.2008 28.6542 27.9275 27.9274C28.6542 27.2007 29.0625 26.2151 29.0625 25.1874V10.8378C29.0625 10.7896 29.0434 10.7434 29.0093 10.7094C28.9752 10.6753 28.929 10.6562 28.8809 10.6562H2.11914C2.07097 10.6562 2.02477 10.6753 1.9907 10.7094C1.95664 10.7434 1.9375 10.7896 1.9375 10.8378V25.1874ZM22.7656 12.5937C23.053 12.5937 23.334 12.6789 23.5729 12.8386C23.8119 12.9982 23.9982 13.2252 24.1081 13.4907C24.2181 13.7562 24.2469 14.0484 24.1908 14.3303C24.1348 14.6122 23.9964 14.8711 23.7931 15.0743C23.5899 15.2775 23.331 15.4159 23.0491 15.472C22.7672 15.5281 22.4751 15.4993 22.2095 15.3893C21.944 15.2793 21.7171 15.0931 21.5574 14.8541C21.3977 14.6151 21.3125 14.3342 21.3125 14.0468C21.3125 13.6614 21.4656 13.2918 21.7381 13.0193C22.0106 12.7468 22.3802 12.5937 22.7656 12.5937ZM22.7656 17.4374C23.053 17.4374 23.334 17.5226 23.5729 17.6823C23.8119 17.842 23.9982 18.0689 24.1081 18.3344C24.2181 18.6 24.2469 18.8921 24.1908 19.174C24.1348 19.4559 23.9964 19.7148 23.7931 19.918C23.5899 20.1213 23.331 20.2597 23.0491 20.3157C22.7672 20.3718 22.4751 20.343 22.2095 20.233C21.944 20.1231 21.7171 19.9368 21.5574 19.6978C21.3977 19.4589 21.3125 19.1779 21.3125 18.8905C21.3125 18.5051 21.4656 18.1355 21.7381 17.863C22.0106 17.5905 22.3802 17.4374 22.7656 17.4374ZM17.9219 12.5937C18.2093 12.5937 18.4902 12.6789 18.7292 12.8386C18.9682 12.9982 19.1544 13.2252 19.2644 13.4907C19.3744 13.7562 19.4031 14.0484 19.3471 14.3303C19.291 14.6122 19.1526 14.8711 18.9494 15.0743C18.7462 15.2775 18.4872 15.4159 18.2054 15.472C17.9235 15.5281 17.6313 15.4993 17.3658 15.3893C17.1003 15.2793 16.8733 15.0931 16.7136 14.8541C16.554 14.6151 16.4688 14.3342 16.4688 14.0468C16.4688 13.6614 16.6218 13.2918 16.8944 13.0193C17.1669 12.7468 17.5365 12.5937 17.9219 12.5937ZM17.9219 17.4374C18.2093 17.4374 18.4902 17.5226 18.7292 17.6823C18.9682 17.842 19.1544 18.0689 19.2644 18.3344C19.3744 18.6 19.4031 18.8921 19.3471 19.174C19.291 19.4559 19.1526 19.7148 18.9494 19.918C18.7462 20.1213 18.4872 20.2597 18.2054 20.3157C17.9235 20.3718 17.6313 20.343 17.3658 20.233C17.1003 20.1231 16.8733 19.9368 16.7136 19.6978C16.554 19.4589 16.4688 19.1779 16.4688 18.8905C16.4688 18.5051 16.6218 18.1355 16.8944 17.863C17.1669 17.5905 17.5365 17.4374 17.9219 17.4374ZM17.9219 22.2812C18.2093 22.2812 18.4902 22.3664 18.7292 22.5261C18.9682 22.6857 19.1544 22.9127 19.2644 23.1782C19.3744 23.4437 19.4031 23.7359 19.3471 24.0178C19.291 24.2997 19.1526 24.5586 18.9494 24.7618C18.7462 24.965 18.4872 25.1034 18.2054 25.1595C17.9235 25.2156 17.6313 25.1868 17.3658 25.0768C17.1003 24.9668 16.8733 24.7806 16.7136 24.5416C16.554 24.3026 16.4688 24.0217 16.4688 23.7343C16.4688 23.3489 16.6218 22.9793 16.8944 22.7068C17.1669 22.4343 17.5365 22.2812 17.9219 22.2812ZM13.0781 17.4374C13.3655 17.4374 13.6465 17.5226 13.8854 17.6823C14.1244 17.842 14.3107 18.0689 14.4206 18.3344C14.5306 18.6 14.5594 18.8921 14.5033 19.174C14.4473 19.4559 14.3089 19.7148 14.1056 19.918C13.9024 20.1213 13.6435 20.2597 13.3616 20.3157C13.0797 20.3718 12.7876 20.343 12.522 20.233C12.2565 20.1231 12.0296 19.9368 11.8699 19.6978C11.7102 19.4589 11.625 19.1779 11.625 18.8905C11.625 18.5051 11.7781 18.1355 12.0506 17.863C12.3231 17.5905 12.6927 17.4374 13.0781 17.4374ZM13.0781 22.2812C13.3655 22.2812 13.6465 22.3664 13.8854 22.5261C14.1244 22.6857 14.3107 22.9127 14.4206 23.1782C14.5306 23.4437 14.5594 23.7359 14.5033 24.0178C14.4473 24.2997 14.3089 24.5586 14.1056 24.7618C13.9024 24.965 13.6435 25.1034 13.3616 25.1595C13.0797 25.2156 12.7876 25.1868 12.522 25.0768C12.2565 24.9668 12.0296 24.7806 11.8699 24.5416C11.7102 24.3026 11.625 24.0217 11.625 23.7343C11.625 23.3489 11.7781 22.9793 12.0506 22.7068C12.3231 22.4343 12.6927 22.2812 13.0781 22.2812ZM8.23438 17.4374C8.52178 17.4374 8.80272 17.5226 9.04169 17.6823C9.28065 17.842 9.4669 18.0689 9.57689 18.3344C9.68687 18.6 9.71565 18.8921 9.65958 19.174C9.60351 19.4559 9.46511 19.7148 9.26189 19.918C9.05867 20.1213 8.79974 20.2597 8.51787 20.3157C8.23599 20.3718 7.94381 20.343 7.67829 20.233C7.41276 20.1231 7.18582 19.9368 7.02615 19.6978C6.86647 19.4589 6.78125 19.1779 6.78125 18.8905C6.78125 18.5051 6.93435 18.1355 7.20686 17.863C7.47937 17.5905 7.84898 17.4374 8.23438 17.4374ZM8.23438 22.2812C8.52178 22.2812 8.80272 22.3664 9.04169 22.5261C9.28065 22.6857 9.4669 22.9127 9.57689 23.1782C9.68687 23.4437 9.71565 23.7359 9.65958 24.0178C9.60351 24.2997 9.46511 24.5586 9.26189 24.7618C9.05867 24.965 8.79974 25.1034 8.51787 25.1595C8.23599 25.2156 7.94381 25.1868 7.67829 25.0768C7.41276 24.9668 7.18582 24.7806 7.02615 24.5416C6.86647 24.3026 6.78125 24.0217 6.78125 23.7343C6.78125 23.3489 6.93435 22.9793 7.20686 22.7068C7.47937 22.4343 7.84898 22.2812 8.23438 22.2812Z" fill="#E4E4E4"/>
</g>
</svg>
