<svg width="187" height="58" viewBox="0 0 187 58" fill="none" xmlns="http://www.w3.org/2000/svg">
<rect width="187" height="58" rx="29" fill="#EAEAEA"/>
<path d="M90.0887 21.51H91.6367V36.828H90.0887V21.51ZM83.0867 30.564H84.6347V36.36H83.0867V30.564ZM88.8467 31.356H78.8207V30.06H88.8467V31.356ZM79.3247 27.918L82.3667 25.722C82.6787 25.506 82.8827 25.266 82.9787 25.002C83.0747 24.738 83.1227 24.45 83.1227 24.138V23.4H84.5627V24.138C84.5627 24.594 84.4667 25.074 84.2747 25.578C84.0827 26.082 83.7287 26.52 83.2127 26.892L80.1707 29.07L79.3247 27.918ZM87.6047 29.07L84.5627 26.892C84.0467 26.52 83.6927 26.088 83.5007 25.596C83.3207 25.092 83.2307 24.606 83.2307 24.138V23.4H84.6707V24.138C84.6707 24.474 84.7127 24.774 84.7967 25.038C84.8927 25.29 85.0907 25.518 85.3907 25.722L88.4507 27.918L87.6047 29.07ZM88.1807 24.3H79.6127V23.022H88.1807V24.3ZM83.1587 21.564H84.6347V23.85H83.1587V21.564ZM108.35 33.48V34.776H94.004V33.48H108.35ZM101.942 30.222V33.894H100.394V30.222H101.942ZM95.12 29.736L99.242 26.424C99.566 26.208 99.806 26.004 99.962 25.812C100.13 25.608 100.238 25.422 100.286 25.254C100.334 25.074 100.358 24.864 100.358 24.624V22.68H101.78V24.624C101.78 25.14 101.66 25.644 101.42 26.136C101.192 26.628 100.742 27.108 100.07 27.576L96.002 30.852L95.12 29.736ZM106.388 30.852L102.284 27.558C101.648 27.054 101.204 26.562 100.952 26.082C100.712 25.602 100.592 25.116 100.592 24.624V22.68H102.014V24.606C102.014 24.834 102.044 25.032 102.104 25.2C102.164 25.368 102.272 25.554 102.428 25.758C102.596 25.962 102.842 26.19 103.166 26.442L107.252 29.736L106.388 30.852Z" fill="#1C1C1E"/>
</svg>
