<svg width="130" height="58" viewBox="0 0 130 58" fill="none" xmlns="http://www.w3.org/2000/svg">
<rect x="0.5" y="0.5" width="129" height="57" rx="28.5" fill="#FE902F"/>
<rect x="0.5" y="0.5" width="129" height="57" rx="28.5" stroke="#FE902F"/>
<path d="M38.1256 21.528V36.828H36.5596V21.528H38.1256ZM25.2556 32.004L28.1536 27.612C28.5016 27.084 28.7356 26.652 28.8556 26.316C28.9756 25.98 29.0356 25.608 29.0356 25.2V23.472H30.4576V25.2C30.4576 25.74 30.3736 26.256 30.2056 26.748C30.0376 27.228 29.7496 27.774 29.3416 28.386L26.4616 32.778L25.2556 32.004ZM33.0676 32.778L30.1876 28.386C29.7796 27.774 29.4916 27.228 29.3236 26.748C29.1676 26.256 29.0896 25.74 29.0896 25.2V23.472H30.5116V25.2C30.5116 25.632 30.5656 26.016 30.6736 26.352C30.7936 26.676 31.0276 27.096 31.3756 27.612L34.2736 32.004L33.0676 32.778ZM33.7156 24.21H25.8136V22.932H33.7156V24.21ZM45.3529 27.684C44.6449 27.684 44.0149 27.564 43.4629 27.324C42.9109 27.084 42.4789 26.736 42.1669 26.28C41.8549 25.812 41.6989 25.266 41.6989 24.642C41.6989 24.03 41.8549 23.502 42.1669 23.058C42.4789 22.602 42.9049 22.254 43.4449 22.014C43.9969 21.762 44.6269 21.636 45.3349 21.636C46.0549 21.636 46.6849 21.762 47.2249 22.014C47.7769 22.254 48.2089 22.602 48.5209 23.058C48.8329 23.502 48.9889 24.036 48.9889 24.66C48.9889 25.272 48.8329 25.812 48.5209 26.28C48.2089 26.736 47.7769 27.084 47.2249 27.324C46.6849 27.564 46.0609 27.684 45.3529 27.684ZM42.9949 32.544H44.5429V36.216H42.9949V32.544ZM42.9949 35.748H53.3809V37.008H42.9949V35.748ZM44.5429 29.214H46.1089V32.706H44.5429V29.214ZM50.6989 29.718H40.5649V28.476H50.6989V29.718ZM48.5569 30.816H52.1389V31.932H48.5569V30.816ZM45.3529 26.406C46.0249 26.406 46.5649 26.25 46.9729 25.938C47.3929 25.626 47.6029 25.194 47.6029 24.642C47.6029 24.114 47.3929 23.7 46.9729 23.4C46.5649 23.1 46.0249 22.95 45.3529 22.95C44.6689 22.95 44.1229 23.1 43.7149 23.4C43.3069 23.7 43.1029 24.114 43.1029 24.642C43.1029 25.194 43.3069 25.626 43.7149 25.938C44.1349 26.25 44.6809 26.406 45.3529 26.406ZM51.8149 21.51H53.3809V33.714H51.8149V21.51ZM67.9521 21.528V36.828H66.3861V21.528H67.9521ZM70.4901 27.882V29.178H67.5921V27.882H70.4901ZM55.4961 31.824L58.3761 27.756C58.7241 27.264 58.9521 26.85 59.0601 26.514C59.1801 26.178 59.2401 25.794 59.2401 25.362V23.472H60.6801V25.362C60.6801 25.902 60.5961 26.424 60.4281 26.928C60.2601 27.42 59.9661 27.966 59.5461 28.566L56.6661 32.652L55.4961 31.824ZM63.3081 32.652L60.4101 28.566C59.9901 27.966 59.7021 27.42 59.5461 26.928C59.3901 26.436 59.3121 25.914 59.3121 25.362V23.472H60.7341V25.362C60.7341 25.794 60.7881 26.178 60.8961 26.514C61.0041 26.838 61.2321 27.252 61.5801 27.756L64.4601 31.824L63.3081 32.652ZM63.9381 24.21H56.0181V22.932H63.9381V24.21ZM80.0839 29.178C79.4119 29.178 78.8059 29.046 78.2659 28.782C77.7379 28.518 77.3239 28.146 77.0239 27.666C76.7239 27.174 76.5739 26.622 76.5739 26.01C76.5739 25.434 76.7659 24.9 77.1499 24.408C77.5459 23.904 78.0199 23.514 78.5719 23.238C79.1359 22.95 79.6399 22.806 80.0839 22.806C80.5639 22.806 81.0859 22.95 81.6499 23.238C82.2259 23.514 82.7119 23.904 83.1079 24.408C83.5039 24.9 83.7019 25.434 83.7019 26.01C83.7019 26.622 83.5459 27.174 83.2339 27.666C82.9339 28.146 82.5079 28.518 81.9559 28.782C81.4039 29.046 80.7799 29.178 80.0839 29.178ZM86.0059 33.858H77.6539V32.616L87.5539 32.634V37.368H86.0059V33.858ZM85.0159 31.374H75.2779V30.132H85.0159V31.374ZM79.3279 28.782H80.8759V30.654H79.3279V28.782ZM80.0839 27.936C80.7199 27.936 81.2359 27.756 81.6319 27.396C82.0399 27.036 82.2439 26.574 82.2439 26.01C82.2439 25.458 82.0399 25.008 81.6319 24.66C81.2359 24.312 80.7199 24.138 80.0839 24.138C79.4839 24.138 78.9919 24.312 78.6079 24.66C78.2359 25.008 78.0499 25.458 78.0499 26.01C78.0499 26.574 78.2359 27.036 78.6079 27.396C78.9919 27.756 79.4839 27.936 80.0839 27.936ZM84.5119 24.048H75.7279V22.77H84.5119V24.048ZM79.3639 21.546H80.8759V23.724H79.3639V21.546ZM86.0059 21.528H87.5539V31.86H86.0059V21.528ZM86.9419 26.28H89.8579V27.576H86.9419V26.28ZM103.619 21.528V32.238H102.053V21.528H103.619ZM103.745 35.748V37.008H93.7911V35.748H103.745ZM95.3571 31.824V36.162H93.7911V31.824H95.3571ZM95.0691 29.79C94.3011 29.79 93.6171 29.634 93.0171 29.322C92.4171 28.998 91.9491 28.548 91.6131 27.972C91.2891 27.396 91.1271 26.742 91.1271 26.01C91.1271 25.278 91.2891 24.624 91.6131 24.048C91.9491 23.46 92.4171 23.01 93.0171 22.698C93.6171 22.374 94.3011 22.212 95.0691 22.212C95.8371 22.212 96.5211 22.374 97.1211 22.698C97.7211 23.01 98.1891 23.46 98.5251 24.048C98.8611 24.624 99.0291 25.278 99.0291 26.01C99.0291 26.742 98.8611 27.396 98.5251 27.972C98.1891 28.548 97.7211 28.998 97.1211 29.322C96.5211 29.634 95.8371 29.79 95.0691 29.79ZM95.0691 28.512C95.7891 28.512 96.3711 28.278 96.8151 27.81C97.2591 27.342 97.4811 26.736 97.4811 25.992C97.4811 25.26 97.2591 24.66 96.8151 24.192C96.3711 23.724 95.7891 23.49 95.0691 23.49C94.3491 23.49 93.7671 23.724 93.3231 24.192C92.8791 24.66 92.6571 25.266 92.6571 26.01C92.6571 26.754 92.8791 27.36 93.3231 27.828C93.7791 28.284 94.3611 28.512 95.0691 28.512Z" fill="#FFFDFB"/>
</svg>
