<svg width="79" height="50" viewBox="0 0 79 50" fill="none" xmlns="http://www.w3.org/2000/svg">
<g filter="url(#filter0_d_1184_4191)">
<rect x="8" y="8" width="63" height="34" rx="17" fill="white"/>
<rect x="8.5" y="8.5" width="62" height="33" rx="16.5" stroke="#E4E4E4"/>
<path d="M38.844 26.616V27.768H33.164V32.232H31.772V27.768H26.108V26.616H38.844ZM26.892 24.504C27.756 24.3867 28.556 24.1573 29.292 23.816C30.0387 23.464 30.636 23.0373 31.084 22.536C31.532 22.0347 31.7613 21.512 31.772 20.968H27.324V19.848H31.772V18.136H33.164V19.848H37.612V20.968H33.164C33.1747 21.5013 33.404 22.0187 33.852 22.52C34.3 23.0213 34.892 23.448 35.628 23.8C36.3747 24.152 37.1747 24.3867 38.028 24.504L37.532 25.608C36.412 25.448 35.3987 25.112 34.492 24.6C33.596 24.088 32.924 23.464 32.476 22.728C32.028 23.464 31.3507 24.088 30.444 24.6C29.5373 25.112 28.5187 25.448 27.388 25.608L26.892 24.504ZM50.9564 18.104V23.784H53.1484V24.952H50.9564V32.2H49.5484V18.104H50.9564ZM40.1404 28.504C41.9004 27.6187 43.2604 26.5253 44.2204 25.224C45.191 23.912 45.751 22.424 45.9004 20.76H40.8284V19.624H47.3084C47.3084 21.7467 46.791 23.6613 45.7564 25.368C44.7324 27.064 43.1217 28.4613 40.9244 29.56L40.1404 28.504Z" fill="#636366"/>
</g>
<defs>
<filter id="filter0_d_1184_4191" x="0" y="0" width="79" height="50" filterUnits="userSpaceOnUse" color-interpolation-filters="sRGB">
<feFlood flood-opacity="0" result="BackgroundImageFix"/>
<feColorMatrix in="SourceAlpha" type="matrix" values="0 0 0 0 0 0 0 0 0 0 0 0 0 0 0 0 0 0 127 0" result="hardAlpha"/>
<feOffset/>
<feGaussianBlur stdDeviation="4"/>
<feComposite in2="hardAlpha" operator="out"/>
<feColorMatrix type="matrix" values="0 0 0 0 0 0 0 0 0 0 0 0 0 0 0 0 0 0 0.08 0"/>
<feBlend mode="normal" in2="BackgroundImageFix" result="effect1_dropShadow_1184_4191"/>
<feBlend mode="normal" in="SourceGraphic" in2="effect1_dropShadow_1184_4191" result="shape"/>
</filter>
</defs>
</svg>
