<svg width="131" height="59" viewBox="0 0 131 59" fill="none" xmlns="http://www.w3.org/2000/svg">
<rect x="0.859375" y="1" width="129" height="57" rx="28.5" fill="#FE902F"/>
<rect x="0.859375" y="1" width="129" height="57" rx="28.5" stroke="#FE902F"/>
<path d="M46.1666 22.028V37.328H44.6006V22.028H46.1666ZM33.2966 32.504L36.1946 28.112C36.5426 27.584 36.7766 27.152 36.8966 26.816C37.0166 26.48 37.0766 26.108 37.0766 25.7V23.972H38.4986V25.7C38.4986 26.24 38.4146 26.756 38.2466 27.248C38.0786 27.728 37.7906 28.274 37.3826 28.886L34.5026 33.278L33.2966 32.504ZM41.1086 33.278L38.2286 28.886C37.8206 28.274 37.5326 27.728 37.3646 27.248C37.2086 26.756 37.1306 26.24 37.1306 25.7V23.972H38.5526V25.7C38.5526 26.132 38.6066 26.516 38.7146 26.852C38.8346 27.176 39.0686 27.596 39.4166 28.112L42.3146 32.504L41.1086 33.278ZM41.7566 24.71H33.8546V23.432H41.7566V24.71ZM53.3939 28.184C52.6859 28.184 52.0559 28.064 51.5039 27.824C50.9519 27.584 50.5199 27.236 50.2079 26.78C49.8959 26.312 49.7399 25.766 49.7399 25.142C49.7399 24.53 49.8959 24.002 50.2079 23.558C50.5199 23.102 50.9459 22.754 51.4859 22.514C52.0379 22.262 52.6679 22.136 53.3759 22.136C54.0959 22.136 54.7259 22.262 55.2659 22.514C55.8179 22.754 56.2499 23.102 56.5619 23.558C56.8739 24.002 57.0299 24.536 57.0299 25.16C57.0299 25.772 56.8739 26.312 56.5619 26.78C56.2499 27.236 55.8179 27.584 55.2659 27.824C54.7259 28.064 54.1019 28.184 53.3939 28.184ZM51.0359 33.044H52.5839V36.716H51.0359V33.044ZM51.0359 36.248H61.4219V37.508H51.0359V36.248ZM52.5839 29.714H54.1499V33.206H52.5839V29.714ZM58.7399 30.218H48.6059V28.976H58.7399V30.218ZM56.5979 31.316H60.1799V32.432H56.5979V31.316ZM53.3939 26.906C54.0659 26.906 54.6059 26.75 55.0139 26.438C55.4339 26.126 55.6439 25.694 55.6439 25.142C55.6439 24.614 55.4339 24.2 55.0139 23.9C54.6059 23.6 54.0659 23.45 53.3939 23.45C52.7099 23.45 52.1639 23.6 51.7559 23.9C51.3479 24.2 51.1439 24.614 51.1439 25.142C51.1439 25.694 51.3479 26.126 51.7559 26.438C52.1759 26.75 52.7219 26.906 53.3939 26.906ZM59.8559 22.01H61.4219V34.214H59.8559V22.01ZM72.8696 28.85C72.1616 28.85 71.5256 28.718 70.9616 28.454C70.4096 28.19 69.9776 27.812 69.6656 27.32C69.3536 26.828 69.1976 26.276 69.1976 25.664C69.1976 25.04 69.3536 24.482 69.6656 23.99C69.9776 23.498 70.4096 23.12 70.9616 22.856C71.5256 22.58 72.1556 22.442 72.8516 22.442C73.5836 22.442 74.2316 22.58 74.7956 22.856C75.3716 23.12 75.8156 23.504 76.1276 24.008C76.4516 24.5 76.6136 25.052 76.6136 25.664C76.6136 26.288 76.4516 26.846 76.1276 27.338C75.8156 27.818 75.3716 28.19 74.7956 28.454C74.2316 28.718 73.5896 28.85 72.8696 28.85ZM70.4036 33.08H71.9516V36.788H70.4036V33.08ZM70.4036 36.23H80.4836V37.508H70.4036V36.23ZM77.6396 31.622H68.1356V30.362H77.6396V31.622ZM72.1316 28.382H73.6796V30.956H72.1316V28.382ZM72.8696 27.644C73.5416 27.644 74.0876 27.464 74.5076 27.104C74.9276 26.732 75.1376 26.252 75.1376 25.664C75.1376 25.064 74.9276 24.578 74.5076 24.206C74.0876 23.834 73.5416 23.648 72.8696 23.648C72.2216 23.648 71.6936 23.834 71.2856 24.206C70.8776 24.578 70.6736 25.064 70.6736 25.664C70.6736 26.252 70.8776 26.732 71.2856 27.104C71.6936 27.464 72.2216 27.644 72.8696 27.644ZM78.6836 22.028H80.2316V33.476H78.6836V22.028ZM79.6196 27.32H82.5356V28.616H79.6196V27.32ZM88.9529 31.118V34.61H87.4049V31.118H88.9529ZM93.6869 31.1V34.592H92.1569V31.1H93.6869ZM97.6469 34.286V35.564H83.3009V34.286H97.6469ZM95.3789 23.09V27.788H86.9729V31.046H85.5869V26.546H94.0469V24.332H85.5509V23.09H95.3789ZM95.7389 30.092V31.352H85.5869V30.092H95.7389Z" fill="#FFFDFB"/>
</svg>
