<svg width="59" height="59" viewBox="0 0 59 59" fill="none" xmlns="http://www.w3.org/2000/svg">
<circle cx="29.5" cy="29.5" r="28" stroke="#FF8A00" stroke-width="3"/>
<path d="M30 51C26.0444 51 22.1776 49.7684 18.8886 47.4609C15.5996 45.1534 13.0362 41.8736 11.5224 38.0364C10.0087 34.1991 9.6126 29.9767 10.3843 25.9031C11.156 21.8295 13.0608 18.0877 15.8579 15.1508C18.6549 12.2139 22.2186 10.2138 26.0982 9.40352C29.9778 8.59323 33.9991 9.0091 37.6537 10.5985C41.3082 12.188 44.4318 14.8796 46.6294 18.333C48.827 21.7865 50 25.8466 50 30C50 35.5695 47.8929 40.911 44.1421 44.8492C40.3914 48.7875 35.3043 51 30 51ZM30 12C26.6095 12 23.2951 13.0557 20.4759 15.0336C17.6568 17.0114 15.4596 19.8226 14.1621 23.1117C12.8646 26.4008 12.5251 30.02 13.1865 33.5116C13.848 37.0033 15.4807 40.2106 17.8782 42.7279C20.2756 45.2453 23.3302 46.9596 26.6556 47.6541C29.981 48.3487 33.4278 47.9922 36.5603 46.6298C39.6927 45.2675 42.3701 42.9604 44.2538 40.0003C46.1374 37.0402 47.1429 33.5601 47.1429 30C47.1429 25.2261 45.3367 20.6477 42.1218 17.2721C38.9069 13.8964 34.5466 12 30 12Z" fill="#FF8A00"/>
<path d="M34.1871 39.0889L27 30.5038V16.0519H29.5714V29.2291L36 36.9234L34.1871 39.0889Z" fill="#FF8A00"/>
</svg>
