<svg width="79" height="50" viewBox="0 0 79 50" fill="none" xmlns="http://www.w3.org/2000/svg">
<g filter="url(#filter0_d_1316_3634)">
<rect x="8" y="8" width="63" height="34" rx="17" fill="white"/>
<rect x="8.5" y="8.5" width="62" height="33" rx="16.5" stroke="#E4E4E4"/>
<path d="M36.796 18.168V26.328H35.596V18.168H36.796ZM38.892 21.896V22.904H36.46V21.896H38.892ZM36.796 27.048V32.168H35.596V28.024H28.22V27.048H36.796ZM26.412 24.76L28.732 21.784C28.9773 21.464 29.148 21.1707 29.244 20.904C29.3507 20.6267 29.404 20.3547 29.404 20.088V18.568H30.492V20.088C30.492 20.4507 30.4227 20.8347 30.284 21.24C30.1453 21.6347 29.916 22.04 29.596 22.456L27.276 25.432L26.412 24.76ZM32.668 25.432L30.348 22.456C30.0173 22.0293 29.7827 21.624 29.644 21.24C29.516 20.8453 29.452 20.4613 29.452 20.088V18.568H30.54V20.088C30.54 20.376 30.5827 20.648 30.668 20.904C30.764 21.16 30.9453 21.4533 31.212 21.784L33.532 24.76L32.668 25.432ZM51.3978 18.168V31.688H50.2458V18.168H51.3978ZM47.8138 22.744V23.736H45.2378V22.744H47.8138ZM48.5658 18.504V30.952H47.4458V18.504H48.5658ZM39.4778 27.16L41.7338 23.512C42.0004 23.0747 42.1818 22.6747 42.2778 22.312C42.3844 21.9387 42.4378 21.544 42.4378 21.128V19.752H43.5258V21.128C43.5258 21.6187 43.4618 22.1093 43.3338 22.6C43.2058 23.08 42.9818 23.576 42.6618 24.088L40.4058 27.736L39.4778 27.16ZM45.5738 27.736L43.3177 24.088C42.9978 23.576 42.7738 23.08 42.6458 22.6C42.5178 22.1093 42.4538 21.6187 42.4538 21.128V19.752H43.5418V21.128C43.5418 21.544 43.5898 21.9387 43.6858 22.312C43.7924 22.6747 43.9791 23.0747 44.2458 23.512L46.5018 27.16L45.5738 27.736ZM46.0378 20.424H39.9418V19.432H46.0378V20.424Z" fill="#636366"/>
</g>
<defs>
<filter id="filter0_d_1316_3634" x="0" y="0" width="79" height="50" filterUnits="userSpaceOnUse" color-interpolation-filters="sRGB">
<feFlood flood-opacity="0" result="BackgroundImageFix"/>
<feColorMatrix in="SourceAlpha" type="matrix" values="0 0 0 0 0 0 0 0 0 0 0 0 0 0 0 0 0 0 127 0" result="hardAlpha"/>
<feOffset/>
<feGaussianBlur stdDeviation="4"/>
<feComposite in2="hardAlpha" operator="out"/>
<feColorMatrix type="matrix" values="0 0 0 0 0 0 0 0 0 0 0 0 0 0 0 0 0 0 0.08 0"/>
<feBlend mode="normal" in2="BackgroundImageFix" result="effect1_dropShadow_1316_3634"/>
<feBlend mode="normal" in="SourceGraphic" in2="effect1_dropShadow_1316_3634" result="shape"/>
</filter>
</defs>
</svg>
