<svg width="130" height="58" viewBox="0 0 130 58" fill="none" xmlns="http://www.w3.org/2000/svg">
<rect x="0.5" y="0.5" width="129" height="57" rx="28.5" fill="white"/>
<rect x="0.5" y="0.5" width="129" height="57" rx="28.5" stroke="#FE902F"/>
<path d="M50.3791 29.448V31.842H48.8131V29.448H50.3791ZM46.2211 21.924V23.49H53.0071V21.924H54.5731V27.306H44.6911V21.924H46.2211ZM46.2211 26.118H53.0071V24.678H46.2211V26.118ZM56.7511 28.53V29.79H42.4591V28.53H56.7511ZM54.5011 31.266V34.704H46.1851V36.45H44.6371V33.588H52.9531V32.436H44.5831V31.266H54.5011ZM54.9871 35.982V37.188H44.6371V35.982H54.9871ZM70.1344 21.528V30.726H68.5684V21.528H70.1344ZM72.4384 25.524V26.838H69.4684V25.524H72.4384ZM62.0524 31.41V33.03H68.5864V31.41H70.1344V37.152H60.5044V31.41H62.0524ZM62.0524 35.892H68.5864V34.236H62.0524V35.892ZM66.9484 24.372H58.2184V23.094H66.9484V24.372ZM63.3484 21.492V23.976H61.8184V21.492H63.3484ZM58.8844 26.64C58.8844 25.992 59.0824 25.398 59.4784 24.858C59.8744 24.318 60.3604 23.898 60.9364 23.598C61.5124 23.286 62.0524 23.13 62.5564 23.13C63.0844 23.13 63.6424 23.286 64.2304 23.598C64.8184 23.898 65.3104 24.318 65.7064 24.858C66.1144 25.398 66.3184 25.992 66.3184 26.64C66.3184 27.312 66.1564 27.912 65.8324 28.44C65.5204 28.956 65.0764 29.364 64.5004 29.664C63.9244 29.952 63.2764 30.096 62.5564 30.096C61.8484 30.096 61.2184 29.952 60.6664 29.664C60.1144 29.364 59.6764 28.956 59.3524 28.44C59.0404 27.912 58.8844 27.312 58.8844 26.64ZM60.3604 26.64C60.3604 27.288 60.5644 27.822 60.9724 28.242C61.3804 28.65 61.9084 28.854 62.5564 28.854C63.2284 28.854 63.7804 28.65 64.2124 28.242C64.6444 27.822 64.8604 27.288 64.8604 26.64C64.8604 25.968 64.6444 25.422 64.2124 25.002C63.7804 24.582 63.2284 24.372 62.5564 24.372C61.9084 24.372 61.3804 24.582 60.9724 25.002C60.5644 25.422 60.3604 25.968 60.3604 26.64ZM84.6696 32.904H76.1556V31.662H86.2356V37.314H84.6696V32.904ZM73.6896 28.8C75.4176 28.452 76.7676 27.846 77.7396 26.982C78.7116 26.106 79.1976 24.9 79.1976 23.364V22.554H80.6556V23.364C80.6556 25.248 80.0376 26.766 78.8016 27.918C77.5776 29.058 75.9696 29.826 73.9776 30.222L73.6896 28.8ZM80.6376 27.36H84.8496V28.638H80.6376V27.36ZM80.6556 23.436H74.0676V22.158H80.6556V23.436ZM80.0436 23.994H84.9576V25.254H80.0436V23.994ZM84.6696 21.51H86.2356V30.798H84.6696V21.51Z" fill="#FE902F"/>
</svg>
