<svg width="83" height="83" viewBox="0 0 83 83" fill="none" xmlns="http://www.w3.org/2000/svg">
<g filter="url(#filter0_d_1629_3657)">
<rect x="10.7227" y="10.5" width="62" height="62" rx="31" fill="#A7A7AB"/>
<path d="M27.1017 41.948V44.342H25.5357V41.948H27.1017ZM22.9437 34.424V35.99H29.7297V34.424H31.2957V39.806H21.4137V34.424H22.9437ZM22.9437 38.618H29.7297V37.178H22.9437V38.618ZM33.4737 41.03V42.29H19.1817V41.03H33.4737ZM31.2237 43.766V47.204H22.9077V48.95H21.3597V46.088H29.6757V44.936H21.3057V43.766H31.2237ZM31.7097 48.482V49.688H21.3597V48.482H31.7097ZM46.857 34.028V43.226H45.291V34.028H46.857ZM49.161 38.024V39.338H46.191V38.024H49.161ZM38.775 43.91V45.53H45.309V43.91H46.857V49.652H37.227V43.91H38.775ZM38.775 48.392H45.309V46.736H38.775V48.392ZM43.671 36.872H34.941V35.594H43.671V36.872ZM40.071 33.992V36.476H38.541V33.992H40.071ZM35.607 39.14C35.607 38.492 35.805 37.898 36.201 37.358C36.597 36.818 37.083 36.398 37.659 36.098C38.235 35.786 38.775 35.63 39.279 35.63C39.807 35.63 40.365 35.786 40.953 36.098C41.541 36.398 42.033 36.818 42.429 37.358C42.837 37.898 43.041 38.492 43.041 39.14C43.041 39.812 42.879 40.412 42.555 40.94C42.243 41.456 41.799 41.864 41.223 42.164C40.647 42.452 39.999 42.596 39.279 42.596C38.571 42.596 37.941 42.452 37.389 42.164C36.837 41.864 36.399 41.456 36.075 40.94C35.763 40.412 35.607 39.812 35.607 39.14ZM37.083 39.14C37.083 39.788 37.287 40.322 37.695 40.742C38.103 41.15 38.631 41.354 39.279 41.354C39.951 41.354 40.503 41.15 40.935 40.742C41.367 40.322 41.583 39.788 41.583 39.14C41.583 38.468 41.367 37.922 40.935 37.502C40.503 37.082 39.951 36.872 39.279 36.872C38.631 36.872 38.103 37.082 37.695 37.502C37.287 37.922 37.083 38.468 37.083 39.14ZM61.3923 45.404H52.8783V44.162H62.9583V49.814H61.3923V45.404ZM50.4123 41.3C52.1403 40.952 53.4903 40.346 54.4623 39.482C55.4343 38.606 55.9203 37.4 55.9203 35.864V35.054H57.3783V35.864C57.3783 37.748 56.7603 39.266 55.5243 40.418C54.3003 41.558 52.6923 42.326 50.7003 42.722L50.4123 41.3ZM57.3603 39.86H61.5723V41.138H57.3603V39.86ZM57.3783 35.936H50.7903V34.658H57.3783V35.936ZM56.7663 36.494H61.6803V37.754H56.7663V36.494ZM61.3923 34.01H62.9583V43.298H61.3923V34.01Z" fill="#FFFDFB"/>
</g>
<defs>
<filter id="filter0_d_1629_3657" x="0.722656" y="0.5" width="82" height="82" filterUnits="userSpaceOnUse" color-interpolation-filters="sRGB">
<feFlood flood-opacity="0" result="BackgroundImageFix"/>
<feColorMatrix in="SourceAlpha" type="matrix" values="0 0 0 0 0 0 0 0 0 0 0 0 0 0 0 0 0 0 127 0" result="hardAlpha"/>
<feOffset/>
<feGaussianBlur stdDeviation="5"/>
<feComposite in2="hardAlpha" operator="out"/>
<feColorMatrix type="matrix" values="0 0 0 0 0.654902 0 0 0 0 0.654902 0 0 0 0 0.670588 0 0 0 0.8 0"/>
<feBlend mode="normal" in2="BackgroundImageFix" result="effect1_dropShadow_1629_3657"/>
<feBlend mode="normal" in="SourceGraphic" in2="effect1_dropShadow_1629_3657" result="shape"/>
</filter>
</defs>
</svg>
