<svg width="24" height="24" viewBox="0 0 24 24" fill="none" xmlns="http://www.w3.org/2000/svg">
<g id="Group 114">
<path id="Vector" fill-rule="evenodd" clip-rule="evenodd" d="M23.4031 4.77528C23.5208 4.95386 23.5732 5.16757 23.5516 5.38032C23.5299 5.59308 23.4355 5.79184 23.2843 5.94305L11.9001 17.326C11.7836 17.4424 11.6383 17.5257 11.479 17.5675L6.73738 18.8058C6.58064 18.8467 6.41593 18.8459 6.25961 18.8034C6.10329 18.761 5.96079 18.6784 5.84625 18.5639C5.73171 18.4493 5.64912 18.3068 5.60667 18.1505C5.56423 17.9942 5.5634 17.8295 5.60428 17.6727L6.84264 12.9323C6.87879 12.79 6.94698 12.6579 7.04201 12.5459L18.4683 1.12709C18.6424 0.953162 18.8785 0.855469 19.1246 0.855469C19.3707 0.855469 19.6068 0.953162 19.781 1.12709L23.2843 4.62915C23.3287 4.67374 23.3685 4.7227 23.4031 4.77528ZM21.314 5.28548L19.1246 3.09731L8.57633 13.6456L7.80236 16.609L10.7657 15.835L21.314 5.28548Z" fill="#3A3A3C"/>
<path id="Vector_2" d="M21.1547 18.3912C21.4932 15.4983 21.6013 12.5831 21.4779 9.67317C21.4753 9.60461 21.4867 9.53624 21.5117 9.47232C21.5366 9.4084 21.5744 9.3503 21.6228 9.30167L22.8414 8.08313C22.8747 8.04964 22.9169 8.02648 22.9631 8.01643C23.0092 8.00639 23.0573 8.00988 23.1015 8.02649C23.1457 8.0431 23.1841 8.07212 23.2123 8.11007C23.2404 8.14801 23.2569 8.19327 23.2599 8.2404C23.4893 11.6969 23.4022 15.1672 22.9999 18.6079C22.7076 21.1118 20.6965 23.0746 18.2037 23.3533C13.8761 23.8325 9.50882 23.8325 5.18121 23.3533C2.68964 23.0746 0.677318 21.1118 0.385066 18.6079C-0.128355 14.2184 -0.128355 9.78411 0.385066 5.39466C0.677318 2.89071 2.6884 0.927922 5.18121 0.649292C8.46578 0.285071 11.7751 0.196839 15.0744 0.385523C15.1216 0.388913 15.1669 0.405765 15.2048 0.434081C15.2428 0.462397 15.2718 0.500993 15.2885 0.545296C15.3051 0.5896 15.3088 0.637755 15.2989 0.684059C15.2891 0.730363 15.2662 0.772876 15.2329 0.806563L14.0032 2.03501C13.9551 2.08299 13.8976 2.12061 13.8343 2.14552C13.7711 2.17044 13.7034 2.18214 13.6354 2.1799C10.8823 2.08631 8.12596 2.19184 5.38801 2.49568C4.58796 2.58423 3.84113 2.9399 3.26814 3.50525C2.69516 4.07059 2.3295 4.81258 2.23021 5.61137C1.73369 9.85684 1.73369 14.1457 2.23021 18.3912C2.3295 19.19 2.69516 19.932 3.26814 20.4973C3.84113 21.0626 4.58796 21.4183 5.38801 21.5069C9.54269 21.9713 13.8422 21.9713 17.9982 21.5069C18.7982 21.4183 19.545 21.0626 20.118 20.4973C20.691 19.932 21.0554 19.19 21.1547 18.3912Z" fill="#3A3A3C"/>
</g>
</svg>
