<svg width="215" height="215" viewBox="0 0 215 215" fill="none" xmlns="http://www.w3.org/2000/svg">
<circle cx="107.5" cy="107.5" r="107.5" fill="#FFAF36" fill-opacity="0.4"/>
<path fill-rule="evenodd" clip-rule="evenodd" d="M107.178 47C87.8296 47 72.1445 62.685 72.1445 82.0335C72.1445 101.382 87.8296 117.067 107.178 117.067C126.526 117.067 142.212 101.382 142.212 82.0335C142.212 62.685 126.526 47 107.178 47Z" fill="white"/>
<path fill-rule="evenodd" clip-rule="evenodd" d="M107.179 108.66C78.7706 108.66 54.5509 126.576 48.4082 151.192C46.0681 160.57 54.2002 167.517 62.336 167.517H152.022C160.158 167.517 168.29 160.57 165.95 151.192C159.807 126.576 135.587 108.66 107.179 108.66Z" fill="white"/>
<circle cx="107.5" cy="107.5" r="107.5" fill="#FE902F" fill-opacity="0.4"/>
<path d="M121.322 90.4786L121.47 90.6306H121.681H128.628C131.3 90.6306 133.5 92.8779 133.5 95.6735V126.159C133.5 128.955 131.3 131.202 128.628 131.202H85.6496C82.9776 131.202 80.7773 128.955 80.7773 126.159V95.6735C80.7773 92.8779 82.9776 90.6306 85.6496 90.6306H92.596H92.8077L92.955 90.4786L100.226 82.9764L100.227 82.9758C100.43 82.7653 100.671 82.5993 100.935 82.4865C101.199 82.3736 101.481 82.316 101.766 82.3164H101.766L112.511 82.3164L112.512 82.3164C112.796 82.316 113.079 82.3736 113.343 82.4865C113.606 82.5993 113.847 82.7653 114.05 82.9758L114.051 82.9764L121.322 90.4786ZM112.511 81.8164H101.766H112.511Z" fill="white" stroke="#FF8A00"/>
<circle cx="107.806" cy="111.795" r="9.99306" fill="white" stroke="#FF8A00" stroke-width="3"/>
</svg>
