<svg width="516" height="22" viewBox="0 0 516 22" fill="none" xmlns="http://www.w3.org/2000/svg">
<path d="M0.5 11L177.5 11" stroke="#C3C3C3"/>
<path d="M214.422 15.516V16.956H199.986V15.516H214.422ZM208.068 12.672V16.38H206.304V12.672H208.068ZM212.208 4.518V9.396H203.856V12.654H202.236V8.01H210.588V5.94H202.2V4.518H212.208ZM212.568 11.682V13.104H202.236V11.682H212.568ZM229.82 15.174V16.632H215.402V15.174H229.82ZM226.958 6.3H217.328V4.842H226.958V6.3ZM227.372 4.842V13.212H225.572V4.842H227.372ZM243.94 3.492V14.292H242.158V3.492H243.94ZM244.066 17.64V19.08H233.986V17.64H244.066ZM235.75 13.824V18.144H233.986V13.824H235.75ZM235.336 11.934C234.544 11.934 233.842 11.772 233.23 11.448C232.618 11.112 232.138 10.65 231.79 10.062C231.442 9.474 231.268 8.808 231.268 8.064C231.268 7.308 231.442 6.636 231.79 6.048C232.138 5.46 232.618 5.004 233.23 4.68C233.842 4.344 234.544 4.176 235.336 4.176C236.116 4.176 236.812 4.344 237.424 4.68C238.036 5.004 238.51 5.46 238.846 6.048C239.194 6.636 239.368 7.308 239.368 8.064C239.368 8.808 239.194 9.474 238.846 10.062C238.51 10.65 238.036 11.112 237.424 11.448C236.812 11.772 236.116 11.934 235.336 11.934ZM235.336 10.476C236.02 10.476 236.572 10.254 236.992 9.81C237.424 9.366 237.64 8.778 237.64 8.046C237.64 7.326 237.424 6.744 236.992 6.3C236.572 5.856 236.014 5.634 235.318 5.634C234.634 5.634 234.076 5.856 233.644 6.3C233.224 6.744 233.014 7.332 233.014 8.064C233.014 8.784 233.224 9.366 233.644 9.81C234.076 10.254 234.64 10.476 235.336 10.476ZM246.684 18.756L250.41 3.924L252.012 4.338L248.286 19.188L246.684 18.756ZM259.031 13.158C258.287 13.158 257.621 13.002 257.033 12.69C256.445 12.366 255.989 11.922 255.665 11.358C255.341 10.782 255.179 10.134 255.179 9.414C255.179 8.73 255.383 8.1 255.791 7.524C256.199 6.948 256.703 6.498 257.303 6.174C257.915 5.838 258.491 5.67 259.031 5.67C259.571 5.67 260.141 5.838 260.741 6.174C261.341 6.498 261.845 6.948 262.253 7.524C262.661 8.1 262.865 8.73 262.865 9.414C262.865 10.134 262.703 10.782 262.379 11.358C262.055 11.922 261.599 12.366 261.011 12.69C260.435 13.002 259.775 13.158 259.031 13.158ZM263.963 15.948H253.973V14.526H263.963V15.948ZM258.113 12.69H259.877V15.498H258.113V12.69ZM259.013 11.682C259.673 11.682 260.207 11.472 260.615 11.052C261.023 10.632 261.227 10.086 261.227 9.414C261.227 8.742 261.023 8.202 260.615 7.794C260.207 7.374 259.679 7.164 259.031 7.164C258.359 7.164 257.819 7.374 257.411 7.794C257.003 8.202 256.799 8.742 256.799 9.414C256.799 10.086 257.003 10.632 257.411 11.052C257.819 11.472 258.353 11.682 259.013 11.682ZM254.513 5.67H263.549V7.128H254.513V5.67ZM258.221 3.762H259.841V6.444H258.221V3.762ZM265.097 3.474H266.861V18.864H265.097V3.474ZM274.195 9.702C273.463 9.702 272.815 9.576 272.251 9.324C271.687 9.072 271.243 8.718 270.919 8.262C270.607 7.794 270.451 7.248 270.451 6.624C270.451 6.012 270.607 5.478 270.919 5.022C271.243 4.554 271.687 4.2 272.251 3.96C272.815 3.708 273.463 3.582 274.195 3.582C274.939 3.582 275.593 3.708 276.157 3.96C276.721 4.2 277.159 4.554 277.471 5.022C277.795 5.478 277.957 6.012 277.957 6.624C277.957 7.248 277.795 7.794 277.471 8.262C277.159 8.718 276.715 9.072 276.139 9.324C275.575 9.576 274.927 9.702 274.195 9.702ZM271.765 14.58H273.529V18.126H271.765V14.58ZM271.765 17.64H282.403V19.08H271.765V17.64ZM273.385 11.304H275.149V14.814H273.385V11.304ZM279.505 11.862H269.425V10.44H279.505V11.862ZM277.381 12.87H280.945V14.112H277.381V12.87ZM274.195 8.262C274.855 8.262 275.377 8.118 275.761 7.83C276.145 7.542 276.337 7.14 276.337 6.624C276.337 6.12 276.145 5.73 275.761 5.454C275.377 5.166 274.861 5.022 274.213 5.022C273.565 5.022 273.043 5.166 272.647 5.454C272.251 5.73 272.053 6.12 272.053 6.624C272.053 7.14 272.251 7.542 272.647 7.83C273.043 8.118 273.559 8.262 274.195 8.262ZM280.585 3.474H282.349V15.732H280.585V3.474ZM296.955 3.456V18.864H295.173V3.456H296.955ZM299.367 9.72V11.178H296.487V9.72H299.367ZM285.507 4.824H292.833V6.282H285.507V4.824ZM285.057 13.266C286.173 12.966 287.187 12.504 288.099 11.88C289.023 11.256 289.761 10.47 290.313 9.522C290.865 8.574 291.141 7.494 291.141 6.282V5.292H292.833V6.282C292.833 7.746 292.485 9.072 291.789 10.26C291.105 11.448 290.205 12.432 289.089 13.212C287.973 13.992 286.767 14.55 285.471 14.886L285.057 13.266ZM313.127 3.474V12.024H311.363V3.474H313.127ZM305.045 12.798V14.544H311.381V12.798H313.127V19.206H303.299V12.798H305.045ZM305.045 17.784H311.381V15.93H305.045V17.784ZM304.541 11.772C303.749 11.772 303.047 11.61 302.435 11.286C301.823 10.95 301.343 10.488 300.995 9.9C300.647 9.312 300.473 8.646 300.473 7.902C300.473 7.146 300.647 6.474 300.995 5.886C301.343 5.298 301.823 4.842 302.435 4.518C303.047 4.182 303.749 4.014 304.541 4.014C305.321 4.014 306.017 4.182 306.629 4.518C307.241 4.842 307.715 5.298 308.051 5.886C308.399 6.474 308.573 7.146 308.573 7.902C308.573 8.646 308.399 9.312 308.051 9.9C307.715 10.488 307.241 10.95 306.629 11.286C306.017 11.61 305.321 11.772 304.541 11.772ZM304.523 10.314C305.219 10.314 305.777 10.092 306.197 9.648C306.629 9.204 306.845 8.622 306.845 7.902C306.845 7.17 306.629 6.582 306.197 6.138C305.777 5.682 305.219 5.454 304.523 5.454C303.839 5.454 303.281 5.682 302.849 6.138C302.429 6.582 302.219 7.17 302.219 7.902C302.219 8.622 302.429 9.204 302.849 9.648C303.281 10.092 303.839 10.314 304.523 10.314Z" fill="#9C9CA1"/>
<path d="M338.5 11L515.5 11" stroke="#C3C3C3"/>
</svg>
