<svg width="162" height="58" viewBox="0 0 162 58" fill="none" xmlns="http://www.w3.org/2000/svg">
<rect x="0.5" y="0.5" width="161" height="57" rx="28.5" fill="#FE902F"/>
<rect x="0.5" y="0.5" width="161" height="57" rx="28.5" stroke="#FE902F"/>
<path d="M71.8312 30.6C71.0752 30.6 70.3972 30.45 69.7972 30.15C69.2092 29.838 68.7472 29.412 68.4112 28.872C68.0872 28.32 67.9252 27.696 67.9252 27C67.9252 26.328 68.1292 25.71 68.5372 25.146C68.9572 24.582 69.4732 24.144 70.0852 23.832C70.6972 23.508 71.2792 23.346 71.8312 23.346C72.4072 23.346 73.0132 23.508 73.6492 23.832C74.2852 24.144 74.8132 24.582 75.2332 25.146C75.6532 25.698 75.8632 26.316 75.8632 27C75.8632 27.696 75.6892 28.32 75.3412 28.872C75.0052 29.412 74.5312 29.838 73.9192 30.15C73.3072 30.45 72.6112 30.6 71.8312 30.6ZM71.0752 32.508H72.6232V37.368H71.0752V32.508ZM64.7032 31.788H79.0492V33.048H64.7032V31.788ZM71.8312 29.304C72.5872 29.304 73.1992 29.088 73.6672 28.656C74.1352 28.224 74.3692 27.672 74.3692 27C74.3692 26.304 74.1352 25.74 73.6672 25.308C73.1992 24.864 72.5872 24.642 71.8312 24.642C71.1232 24.642 70.5472 24.864 70.1032 25.308C69.6592 25.74 69.4372 26.304 69.4372 27C69.4372 27.684 69.6592 28.242 70.1032 28.674C70.5472 29.094 71.1232 29.304 71.8312 29.304ZM77.2672 24.642H66.4672V23.346H77.2672V24.642ZM71.1292 21.33H72.6232V24.246H71.1292V21.33ZM93.0625 21.51V36.81H91.5145V21.51H93.0625ZM88.5985 24.138H81.3805V22.86H88.5985V24.138ZM80.9305 31.194C82.0705 30.882 83.1025 30.42 84.0265 29.808C84.9505 29.184 85.6885 28.392 86.2405 27.432C86.8045 26.472 87.0865 25.368 87.0865 24.12V23.238H88.5985V24.12C88.5985 25.608 88.2565 26.934 87.5725 28.098C86.9005 29.262 86.0125 30.222 84.9085 30.978C83.8045 31.734 82.6105 32.292 81.3265 32.652L80.9305 31.194ZM111.89 21.528V30.744H110.324V21.528H111.89ZM114.194 25.65V26.946H111.458V25.65H114.194ZM111.89 31.59V37.368H110.324V32.85H102.116V31.59H111.89ZM100.118 28.89L102.782 25.92C103.07 25.608 103.262 25.314 103.358 25.038C103.454 24.762 103.502 24.462 103.502 24.138V22.734H104.924V24.138C104.924 24.594 104.846 25.05 104.69 25.506C104.534 25.962 104.258 26.418 103.862 26.874L101.198 29.844L100.118 28.89ZM107.282 29.844L104.618 26.874C104.21 26.418 103.928 25.962 103.772 25.506C103.628 25.05 103.556 24.594 103.556 24.138V22.734H104.978V24.138C104.978 24.462 105.026 24.762 105.122 25.038C105.218 25.314 105.41 25.608 105.698 25.92L108.362 28.89L107.282 29.844ZM108.038 23.598H100.316V22.32H108.038V23.598ZM123.42 37.62C122.676 37.62 122.01 37.476 121.422 37.188C120.846 36.9 120.39 36.498 120.054 35.982C119.73 35.466 119.568 34.884 119.568 34.236C119.568 33.576 119.73 32.988 120.054 32.472C120.39 31.956 120.846 31.554 121.422 31.266C122.01 30.978 122.676 30.834 123.42 30.834C124.164 30.834 124.83 30.978 125.418 31.266C126.006 31.554 126.462 31.956 126.786 32.472C127.122 32.988 127.29 33.576 127.29 34.236C127.29 34.884 127.122 35.466 126.786 35.982C126.462 36.498 126.006 36.9 125.418 37.188C124.842 37.476 124.176 37.62 123.42 37.62ZM123.42 36.306C124.116 36.306 124.68 36.114 125.112 35.73C125.556 35.346 125.778 34.848 125.778 34.236C125.778 33.612 125.556 33.108 125.112 32.724C124.668 32.34 124.104 32.148 123.42 32.148C122.736 32.148 122.172 32.34 121.728 32.724C121.296 33.108 121.08 33.612 121.08 34.236C121.08 34.848 121.296 35.346 121.728 35.73C122.172 36.114 122.736 36.306 123.42 36.306ZM115.464 28.98L117.966 25.65C118.23 25.302 118.41 24.99 118.506 24.714C118.602 24.426 118.65 24.126 118.65 23.814V22.014H120.072V23.814C120.072 24.246 119.994 24.684 119.838 25.128C119.694 25.572 119.448 26.034 119.1 26.514L116.598 29.844L115.464 28.98ZM122.178 29.844L119.676 26.514C119.328 26.022 119.076 25.554 118.92 25.11C118.776 24.666 118.704 24.234 118.704 23.814V22.014H120.144V23.814C120.144 24.114 120.192 24.408 120.288 24.696C120.384 24.972 120.564 25.29 120.828 25.65L123.33 28.98L122.178 29.844ZM123.042 24.804H126.732V26.1H123.042V24.804ZM126.408 21.528H127.974V30.852H126.408V21.528Z" fill="#FFFDFB"/>
<path d="M31 19.4719C31 18.234 32.0035 17.2305 33.2414 17.2305H48.035C49.2729 17.2305 50.2764 18.234 50.2764 19.4719V39.6449C50.2764 40.8828 49.2729 41.8863 48.035 41.8863H33.2414C32.0035 41.8863 31 40.8828 31 39.6449V19.4719Z" fill="white"/>
<g filter="url(#filter0_b_1701_4507)">
<path d="M59.8614 13.0246C61.2275 14.3906 61.2275 16.6055 59.8614 17.9716L57.3974 20.4355L46.9422 30.8907C46.3819 31.4511 45.6797 31.8487 44.9109 32.0409L40.9038 33.0427C40.2633 33.2028 39.6832 32.6226 39.8433 31.9821L40.8451 27.9751C41.0373 27.2063 41.4348 26.5041 41.9952 25.9437L52.4504 15.4885L54.9144 13.0246C56.2805 11.6585 58.4953 11.6585 59.8614 13.0246Z" fill="url(#paint0_linear_1701_4507)" fill-opacity="0.3"/>
</g>
<path fill-rule="evenodd" clip-rule="evenodd" d="M59.8086 17.9187C61.1455 16.5818 61.1455 14.4143 59.8086 13.0774C58.4717 11.7405 56.3041 11.7405 54.9672 13.0774L42.0481 25.9966C41.4972 26.5474 41.1065 27.2375 40.9176 27.9932L39.9158 32.0003C39.7694 32.586 40.2999 33.1166 40.8857 32.9702L44.8927 31.9684C45.6484 31.7795 46.3386 31.3887 46.8894 30.8379L59.8086 17.9187ZM59.8614 17.9716C61.2275 16.6055 61.2275 14.3906 59.8614 13.0246C58.4953 11.6585 56.2805 11.6585 54.9144 13.0246L41.9952 25.9437C41.4348 26.5041 41.0373 27.2063 40.8451 27.9751L39.8433 31.9821C39.6832 32.6226 40.2633 33.2028 40.9038 33.0427L44.9109 32.0409C45.6797 31.8487 46.3819 31.4511 46.9422 30.8907L59.8614 17.9716Z" fill="url(#paint1_linear_1701_4507)"/>
<path fill-rule="evenodd" clip-rule="evenodd" d="M59.8086 17.9187C61.1455 16.5818 61.1455 14.4143 59.8086 13.0774C58.4717 11.7405 56.3041 11.7405 54.9672 13.0774L42.0481 25.9966C41.4972 26.5474 41.1065 27.2375 40.9176 27.9932L39.9158 32.0003C39.7694 32.586 40.2999 33.1166 40.8857 32.9702L44.8927 31.9684C45.6484 31.7795 46.3386 31.3887 46.8894 30.8379L59.8086 17.9187ZM59.8614 17.9716C61.2275 16.6055 61.2275 14.3906 59.8614 13.0246C58.4953 11.6585 56.2805 11.6585 54.9144 13.0246L41.9952 25.9437C41.4348 26.5041 41.0373 27.2063 40.8451 27.9751L39.8433 31.9821C39.6832 32.6226 40.2633 33.2028 40.9038 33.0427L44.9109 32.0409C45.6797 31.8487 46.3819 31.4511 46.9422 30.8907L59.8614 17.9716Z" fill="url(#paint2_radial_1701_4507)"/>
<path d="M41.9732 31.9931C41.3142 32.1638 40.7142 31.5638 40.8849 30.9048V30.9048C41.0581 30.2363 41.8923 30.0091 42.3806 30.4974V30.4974C42.8689 30.9857 42.6417 31.8198 41.9732 31.9931V31.9931Z" fill="white"/>
<defs>
<filter id="filter0_b_1701_4507" x="9.81641" y="-18" width="81.0703" height="81.0703" filterUnits="userSpaceOnUse" color-interpolation-filters="sRGB">
<feFlood flood-opacity="0" result="BackgroundImageFix"/>
<feGaussianBlur in="BackgroundImageFix" stdDeviation="15"/>
<feComposite in2="SourceAlpha" operator="in" result="effect1_backgroundBlur_1701_4507"/>
<feBlend mode="normal" in="SourceGraphic" in2="effect1_backgroundBlur_1701_4507" result="shape"/>
</filter>
<linearGradient id="paint0_linear_1701_4507" x1="41.444" y1="32.406" x2="49.0892" y2="8.26422" gradientUnits="userSpaceOnUse">
<stop offset="0.44717" stop-color="white" stop-opacity="0.9"/>
<stop offset="0.67" stop-color="white" stop-opacity="0.912777"/>
<stop offset="0.715115" stop-color="white" stop-opacity="0.955296"/>
<stop offset="1" stop-color="white" stop-opacity="0.9"/>
</linearGradient>
<linearGradient id="paint1_linear_1701_4507" x1="42.8486" y1="11.2475" x2="62.5977" y2="22.7784" gradientUnits="userSpaceOnUse">
<stop offset="0.04" stop-color="#FFFCFA"/>
<stop offset="0.19" stop-color="#FE902F" stop-opacity="0.615121"/>
<stop offset="0.82" stop-color="#FE902F"/>
<stop offset="1" stop-color="white" stop-opacity="0.1"/>
</linearGradient>
<radialGradient id="paint2_radial_1701_4507" cx="0" cy="0" r="1" gradientUnits="userSpaceOnUse" gradientTransform="translate(42.9652 32.3798) rotate(-50.9773) scale(16.5465 27.0555)">
<stop stop-color="white"/>
<stop offset="1" stop-color="white" stop-opacity="0"/>
</radialGradient>
</defs>
</svg>
