<svg width="59" height="59" viewBox="0 0 59 59" fill="none" xmlns="http://www.w3.org/2000/svg">
<circle cx="29.5" cy="29.5" r="28" stroke="#FF8A00" stroke-width="3"/>
<path d="M16.6667 17L22.075 43.2204C22.158 43.6237 22.3322 43.9795 22.5718 44.2357C22.8115 44.4918 23.1041 44.635 23.4068 44.644C23.7095 44.653 24.0063 44.5275 24.2537 44.2859C24.5011 44.0442 24.6862 43.6991 24.7817 43.3012L30 21.6171L35.2183 43.3012C35.3138 43.6991 35.4989 44.0442 35.7463 44.2859C35.9937 44.5275 36.2905 44.653 36.5932 44.644C36.8959 44.635 37.1885 44.4918 37.4282 44.2357C37.6678 43.9795 37.842 43.6237 37.925 43.2204L43.3333 17M45 26.2342H15M45 35.4683H15" stroke="#FF8A00" stroke-width="3" stroke-linecap="round" stroke-linejoin="round"/>
</svg>
