<svg width="442" height="288" viewBox="0 0 442 288" fill="none" xmlns="http://www.w3.org/2000/svg">
<path d="M221 120C190.347 120 165.5 95.1526 165.5 64.5C165.5 33.8529 190.347 9 221 9C251.653 9 276.5 33.8529 276.5 64.5C276.5 95.1526 251.653 120 221 120ZM221 36.75C219.528 36.75 218.116 37.3347 217.076 38.3756C216.035 39.4164 215.45 40.8281 215.45 42.3V70.05C215.45 71.5219 216.035 72.9336 217.076 73.9744C218.116 75.0153 219.528 75.6 221 75.6C222.472 75.6 223.884 75.0153 224.924 73.9744C225.965 72.9336 226.55 71.5219 226.55 70.05V42.3C226.55 40.8281 225.965 39.4164 224.924 38.3756C223.884 37.3347 222.472 36.75 221 36.75ZM221 92.25C222.472 92.25 223.884 91.6653 224.924 90.6245C225.965 89.5836 226.55 88.172 226.55 86.7C226.55 85.2281 225.965 83.8164 224.924 82.7756C223.884 81.7347 222.472 81.15 221 81.15C219.528 81.15 218.116 81.7347 217.076 82.7756C216.035 83.8164 215.45 85.2281 215.45 86.7C215.45 88.172 216.035 89.5836 217.076 90.6245C218.116 91.6653 219.528 92.25 221 92.25Z" fill="#FE902F"/>
<path d="M100.048 200.96H116.758V211.07H100.048V200.96ZM113.518 208.46V203.57H103.258V208.46H113.518ZM95.4283 196.46C97.3083 196.12 98.9283 195.63 100.288 194.99C101.668 194.35 102.738 193.49 103.498 192.41C104.278 191.33 104.668 190.01 104.668 188.45V186.95H107.758V188.45C107.758 191.55 106.648 194.01 104.428 195.83C102.228 197.65 99.4083 198.87 95.9683 199.49L95.4283 196.46ZM96.0583 185.93H107.758V188.63H96.0583V185.93ZM108.388 191.24H113.968V193.94H108.388V191.24ZM113.458 184.7H116.758V199.7H113.458V184.7ZM139.719 204.32H125.739V201.68H143.049V211.43H139.719V204.32ZM134.199 185.15H137.289V200.24H134.199V185.15ZM136.269 191.39H140.829V194.06H136.269V191.39ZM139.899 184.73H143.049V200.39H139.899V184.73ZM120.249 197.51L124.329 191.96C124.749 191.42 125.029 190.94 125.169 190.52C125.329 190.08 125.409 189.61 125.409 189.11V185.72H128.469V189.11C128.469 189.85 128.339 190.61 128.079 191.39C127.819 192.17 127.389 192.96 126.789 193.76L122.709 199.31L120.249 197.51ZM131.319 199.31L127.239 193.76C126.099 192.22 125.529 190.67 125.529 189.11V185.72H128.589V189.11C128.589 189.59 128.659 190.04 128.799 190.46C128.959 190.88 129.259 191.38 129.699 191.96L133.779 197.51L131.319 199.31ZM158.433 203.84H171.993V201.86H158.403V199.28H175.293V206.33H161.733V209.99H158.433V203.84ZM158.433 208.55H175.803V211.16H158.433V208.55ZM153.993 195.23C155.893 194.91 157.493 194.49 158.793 193.97C160.093 193.43 161.113 192.7 161.853 191.78C162.613 190.84 162.993 189.66 162.993 188.24V186.83H166.083V188.24C166.083 191.14 165.003 193.39 162.843 194.99C160.703 196.59 157.923 197.68 154.503 198.26L153.993 195.23ZM154.593 185.81H166.083V188.51H154.593V185.81ZM165.663 193.4H172.323V195.92H165.663V193.4ZM165.033 188.27H172.473V190.76H165.033V188.27ZM171.993 184.7H175.293V198.2H171.993V184.7ZM192.344 189.77H179.744V187.07H192.344V189.77ZM183.674 195.11H186.914V203.99H183.674V195.11ZM193.274 187.07V198.95H189.974V187.07H193.274ZM196.424 184.7H199.694V210.5H196.424V184.7ZM198.794 195.62H203.564V198.35H198.794V195.62ZM194.714 205.25H178.904V202.61H194.714V205.25ZM225.505 184.67V210.5H222.205V184.67H225.505ZM229.435 195.05V197.78H224.665V195.05H229.435ZM206.125 186.98H218.515V189.68H206.125V186.98ZM205.375 200.96C207.235 200.48 208.915 199.75 210.415 198.77C211.915 197.77 213.115 196.5 214.015 194.96C214.915 193.42 215.365 191.66 215.365 189.68V187.91H218.515V189.68C218.515 192.14 217.935 194.36 216.775 196.34C215.615 198.3 214.095 199.92 212.215 201.2C210.335 202.48 208.305 203.4 206.125 203.96L205.375 200.96ZM244.939 198.68C243.599 198.68 242.399 198.4 241.339 197.84C240.299 197.28 239.479 196.5 238.879 195.5C238.299 194.5 238.009 193.36 238.009 192.08C238.009 190.8 238.299 189.66 238.879 188.66C239.479 187.64 240.299 186.85 241.339 186.29C242.399 185.73 243.599 185.45 244.939 185.45C246.279 185.45 247.469 185.73 248.509 186.29C249.549 186.85 250.359 187.64 250.939 188.66C251.519 189.66 251.809 190.8 251.809 192.08C251.809 193.36 251.519 194.5 250.939 195.5C250.359 196.5 249.549 197.28 248.509 197.84C247.469 198.4 246.279 198.68 244.939 198.68ZM247.489 208.61V206.03H244.279V208.61H247.489ZM241.249 200.45H244.279V203.6H247.489V200.45H250.489V211.1H241.249V200.45ZM257.659 200.39V202.79C257.659 203.39 257.529 203.99 257.269 204.59C257.029 205.19 256.659 205.87 256.159 206.63L252.829 211.49L250.369 209.81L253.699 204.95C254.079 204.37 254.329 203.94 254.449 203.66C254.589 203.36 254.659 203.07 254.659 202.79V200.39H257.659ZM259.579 211.49L256.219 206.63C255.719 205.91 255.349 205.24 255.109 204.62C254.869 204 254.749 203.39 254.749 202.79V200.39H257.749V202.79C257.749 203.09 257.809 203.39 257.929 203.69C258.069 203.99 258.319 204.41 258.679 204.95L262.039 209.81L259.579 211.49ZM244.939 195.98C246.039 195.98 246.919 195.62 247.579 194.9C248.259 194.18 248.599 193.24 248.599 192.08C248.599 190.9 248.259 189.95 247.579 189.23C246.919 188.49 246.039 188.12 244.939 188.12C243.819 188.12 242.919 188.49 242.239 189.23C241.559 189.95 241.219 190.9 241.219 192.08C241.219 193.24 241.559 194.18 242.239 194.9C242.939 195.62 243.839 195.98 244.939 195.98ZM250.759 190.46H257.629V193.13H250.759V190.46ZM256.369 184.73H259.699V198.83H256.369V184.73ZM269.94 201.05V203.63H280.65V201.05H283.89V211.1H266.7V201.05H269.94ZM269.94 208.49H280.65V206.12H269.94V208.49ZM287.4 196.4V199.01H263.28V196.4H287.4ZM265.32 192.71L272.07 188.42C272.73 188 273.17 187.61 273.39 187.25C273.63 186.89 273.75 186.51 273.75 186.11V184.4H276.69V186.11C276.69 186.89 276.46 187.71 276 188.57C275.56 189.43 274.77 190.22 273.63 190.94L266.94 195.23L265.32 192.71ZM283.77 195.23L277.08 190.94C275.94 190.22 275.14 189.43 274.68 188.57C274.24 187.71 274.02 186.89 274.02 186.11V184.4H276.96V186.11C276.96 186.51 277.07 186.89 277.29 187.25C277.53 187.61 277.98 188 278.64 188.42L285.39 192.71L283.77 195.23ZM311.2 184.7V210.5H307.93V184.7H311.2ZM290.77 202.34V186.89H294.04V202.34H290.77ZM304.42 203.66H290.77V200.93H304.42V203.66ZM335.691 184.67V210.56H332.391V184.67H335.691ZM339.741 194.81V197.54H334.941V194.81H339.741ZM315.951 202.04V187.01H319.221V202.04H315.951ZM329.571 203.66H315.951V200.93H329.571V203.66ZM328.371 189.71H317.121V187.01H328.371V189.71ZM343.381 205.97C343.921 205.97 344.361 206.15 344.701 206.51C345.041 206.85 345.211 207.29 345.211 207.83C345.211 208.39 345.041 208.84 344.701 209.18C344.361 209.54 343.921 209.72 343.381 209.72C342.821 209.72 342.361 209.54 342.001 209.18C341.661 208.84 341.491 208.39 341.491 207.83C341.491 207.29 341.661 206.85 342.001 206.51C342.361 206.15 342.821 205.97 343.381 205.97Z" fill="black"/>
<path d="M18.461 262.584V273.576H15.821V262.584H18.461ZM18.461 274.488V280.008H7.565V282.816H4.973V278.112H15.845V276.528H4.925V274.488H18.461ZM18.989 281.688V283.752H4.973V281.688H18.989ZM3.629 272.088V264.288H6.221V272.088H3.629ZM13.229 265.68H1.781V263.52H13.229V265.68ZM13.229 272.904H1.781V270.744H13.229V272.904ZM8.813 271.872V264.288H11.405V271.872H8.813ZM39.2054 262.536V283.248H36.5894V262.536H39.2054ZM36.9014 269.784V271.92H33.1574V269.784H36.9014ZM22.5254 277.128V264.264H25.1654V277.128H22.5254ZM33.1334 277.728H22.5254V275.544H33.1334V277.728ZM32.6054 266.448H23.4854V264.264H32.6054V266.448ZM32.0054 272.016H23.4854V269.784H32.0054V272.016ZM61.4139 272.304V274.224H42.0699V272.304H61.4139ZM58.5099 275.544V280.416H47.4939V282.504H44.8539V278.712H55.9179V277.368H44.8299V275.544H58.5099ZM59.1579 281.904V283.728H44.8539V281.904H59.1579ZM58.4859 263.04V267.864H47.7099V269.832H45.1419V266.16H55.8939V264.864H45.0939V263.04H58.4859ZM58.8939 269.232V271.08H45.1419V269.232H58.8939ZM84.8816 262.536V283.248H82.2416V262.536H84.8816ZM88.1216 270.648V272.832H84.2816V270.648H88.1216ZM69.0896 276.432V264.408H71.7056V276.432H69.0896ZM79.9856 277.728H69.0896V275.544H79.9856V277.728ZM79.0256 266.568H70.0256V264.408H79.0256V266.568ZM106.49 262.536V283.248H103.85V262.536H106.49ZM89.042 276.72L92.954 271.392C93.418 270.768 93.722 270.248 93.866 269.832C94.01 269.4 94.082 268.896 94.082 268.32V263.952H96.53V268.32C96.53 269.088 96.41 269.832 96.17 270.552C95.946 271.256 95.53 272.016 94.922 272.832L91.01 278.16L89.042 276.72ZM99.698 278.16L95.786 272.832C95.194 272.016 94.778 271.256 94.538 270.552C94.314 269.832 94.202 269.088 94.202 268.32V263.952H96.65V268.32C96.65 268.896 96.722 269.4 96.866 269.832C97.01 270.264 97.306 270.784 97.754 271.392L101.666 276.72L99.698 278.16ZM130.918 267.432V269.592H126.742V267.432H130.918ZM132.814 276.072V283.944H130.15V278.184H119.23V276.072H132.814ZM132.814 262.584V275.016H130.15V262.584H132.814ZM115.654 272.376L119.35 268.44C119.734 268.056 119.982 267.72 120.094 267.432C120.206 267.128 120.262 266.776 120.262 266.376V264.312H122.71V266.376C122.71 266.984 122.59 267.608 122.35 268.248C122.126 268.872 121.718 269.496 121.126 270.12L117.43 274.056L115.654 272.376ZM125.614 274.056L121.894 270.12C121.286 269.464 120.87 268.832 120.646 268.224C120.438 267.6 120.334 266.984 120.334 266.376V264.312H122.782V266.376C122.782 266.792 122.83 267.144 122.926 267.432C123.038 267.704 123.286 268.04 123.67 268.44L127.39 272.376L125.614 274.056ZM126.694 265.752H116.134V263.592H126.694V265.752ZM143.31 269.472V273.432H140.694V269.472H143.31ZM150.006 269.472V273.432H147.39V269.472H150.006ZM155.022 272.736V274.824H135.726V272.736H155.022ZM139.35 266.88C139.35 265.952 139.598 265.144 140.094 264.456C140.606 263.752 141.31 263.208 142.206 262.824C143.118 262.44 144.158 262.248 145.326 262.248C146.51 262.248 147.558 262.44 148.47 262.824C149.398 263.208 150.118 263.752 150.63 264.456C151.142 265.144 151.398 265.952 151.398 266.88C151.398 267.76 151.142 268.552 150.63 269.256C150.118 269.944 149.398 270.488 148.47 270.888C147.542 271.288 146.494 271.488 145.326 271.488C144.174 271.488 143.142 271.288 142.23 270.888C141.334 270.488 140.63 269.936 140.118 269.232C139.606 268.528 139.35 267.744 139.35 266.88ZM141.894 266.88C141.894 267.344 142.038 267.768 142.326 268.152C142.614 268.52 143.022 268.816 143.55 269.04C144.078 269.248 144.678 269.352 145.35 269.352C146.038 269.352 146.646 269.248 147.174 269.04C147.718 268.816 148.134 268.52 148.422 268.152C148.726 267.768 148.878 267.344 148.878 266.88C148.878 266.112 148.558 265.512 147.918 265.08C147.278 264.632 146.422 264.408 145.35 264.408C144.31 264.408 143.47 264.632 142.83 265.08C142.206 265.512 141.894 266.112 141.894 266.88ZM145.398 284.64C144.262 284.64 143.246 284.44 142.35 284.04C141.454 283.656 140.758 283.112 140.262 282.408C139.766 281.72 139.518 280.944 139.518 280.08C139.518 279.2 139.766 278.424 140.262 277.752C140.758 277.064 141.454 276.536 142.35 276.168C143.246 275.784 144.262 275.592 145.398 275.592C146.534 275.592 147.55 275.784 148.446 276.168C149.342 276.536 150.038 277.064 150.534 277.752C151.046 278.424 151.302 279.2 151.302 280.08C151.302 280.944 151.046 281.72 150.534 282.408C150.038 283.112 149.342 283.656 148.446 284.04C147.55 284.44 146.534 284.64 145.398 284.64ZM145.398 282.528C146.054 282.528 146.63 282.416 147.126 282.192C147.622 281.984 148.006 281.696 148.278 281.328C148.566 280.96 148.71 280.544 148.71 280.08C148.71 279.648 148.566 279.248 148.278 278.88C148.006 278.512 147.622 278.224 147.126 278.016C146.63 277.808 146.062 277.704 145.422 277.704C144.766 277.704 144.19 277.808 143.694 278.016C143.198 278.224 142.806 278.512 142.518 278.88C142.246 279.248 142.11 279.648 142.11 280.08C142.11 280.544 142.246 280.96 142.518 281.328C142.79 281.696 143.174 281.984 143.67 282.192C144.182 282.416 144.758 282.528 145.398 282.528ZM173.007 262.584V283.224H170.367V262.584H173.007ZM176.247 271.08V273.264H172.407V271.08H176.247ZM168.591 265.272V267.384H156.639V265.272H168.591ZM163.935 262.968V266.28H161.319V262.968H163.935ZM162.615 278.328C161.607 278.328 160.711 278.12 159.927 277.704C159.143 277.272 158.527 276.672 158.079 275.904C157.647 275.136 157.431 274.264 157.431 273.288C157.431 272.312 157.647 271.44 158.079 270.672C158.527 269.888 159.143 269.28 159.927 268.848C160.711 268.416 161.607 268.2 162.615 268.2C163.623 268.2 164.519 268.416 165.303 268.848C166.103 269.28 166.719 269.888 167.151 270.672C167.599 271.44 167.823 272.312 167.823 273.288C167.823 274.264 167.599 275.136 167.151 275.904C166.719 276.672 166.103 277.272 165.303 277.704C164.519 278.12 163.623 278.328 162.615 278.328ZM162.615 276.144C163.415 276.144 164.055 275.88 164.535 275.352C165.031 274.824 165.279 274.136 165.279 273.288C165.279 272.424 165.031 271.728 164.535 271.2C164.055 270.672 163.415 270.408 162.615 270.408C161.815 270.408 161.167 270.672 160.671 271.2C160.191 271.728 159.951 272.424 159.951 273.288C159.951 274.136 160.199 274.824 160.695 275.352C161.191 275.88 161.831 276.144 162.615 276.144ZM192.095 262.584H194.735V283.224H192.095V262.584ZM177.623 275.424C179.191 275.024 180.567 274.472 181.751 273.768C182.935 273.048 183.879 272.088 184.583 270.888C185.287 269.672 185.639 268.184 185.639 266.424V265.128H188.135V266.424C188.135 268.6 187.671 270.472 186.743 272.04C185.815 273.592 184.607 274.832 183.119 275.76C181.647 276.688 180.015 277.384 178.223 277.848L177.623 275.424ZM188.135 266.544H178.223V264.384H188.135V266.544ZM185.831 269.376H193.175V271.488H185.831V269.376ZM217.423 270.816V273H213.607V270.816H217.423ZM214.303 262.536V283.2H211.663V262.536H214.303ZM198.391 276.936V264.312H201.031V276.936H198.391ZM209.623 277.728H198.391V275.544H209.623V277.728ZM228.219 275.568H241.587V283.656H228.219V275.568ZM238.995 281.568V277.656H230.787V281.568H238.995ZM224.523 271.968C226.027 271.696 227.323 271.304 228.411 270.792C229.515 270.28 230.371 269.592 230.979 268.728C231.603 267.864 231.915 266.808 231.915 265.56V264.36H234.387V265.56C234.387 268.04 233.499 270.008 231.723 271.464C229.963 272.92 227.707 273.896 224.955 274.392L224.523 271.968ZM225.027 263.544H234.387V265.704H225.027V263.544ZM234.891 267.792H239.355V269.952H234.891V267.792ZM238.947 262.56H241.587V274.56H238.947V262.56ZM259.956 278.256H248.772V276.144H262.62V283.944H259.956V278.256ZM255.54 262.92H258.012V274.992H255.54V262.92ZM257.196 267.912H260.844V270.048H257.196V267.912ZM260.1 262.584H262.62V275.112H260.1V262.584ZM244.38 272.808L247.644 268.368C247.98 267.936 248.204 267.552 248.316 267.216C248.444 266.864 248.508 266.488 248.508 266.088V263.376H250.956V266.088C250.956 266.68 250.852 267.288 250.644 267.912C250.436 268.536 250.092 269.168 249.612 269.808L246.348 274.248L244.38 272.808ZM253.236 274.248L249.972 269.808C249.06 268.576 248.604 267.336 248.604 266.088V263.376H251.052V266.088C251.052 266.472 251.108 266.832 251.22 267.168C251.348 267.504 251.588 267.904 251.94 268.368L255.204 272.808L253.236 274.248ZM271.052 276.6C269.932 276.6 268.924 276.344 268.028 275.832C267.148 275.32 266.46 274.608 265.964 273.696C265.468 272.768 265.22 271.72 265.22 270.552C265.22 269.368 265.468 268.32 265.964 267.408C266.46 266.48 267.148 265.76 268.028 265.248C268.924 264.72 269.932 264.456 271.052 264.456C272.172 264.456 273.172 264.72 274.052 265.248C274.932 265.76 275.62 266.48 276.116 267.408C276.612 268.32 276.86 269.368 276.86 270.552C276.86 271.72 276.612 272.768 276.116 273.696C275.62 274.608 274.932 275.32 274.052 275.832C273.172 276.344 272.172 276.6 271.052 276.6ZM271.052 274.344C272.028 274.344 272.812 274 273.404 273.312C273.996 272.608 274.292 271.688 274.292 270.552C274.292 269.8 274.156 269.136 273.884 268.56C273.612 267.968 273.228 267.512 272.732 267.192C272.252 266.872 271.692 266.712 271.052 266.712C270.412 266.712 269.844 266.872 269.348 267.192C268.868 267.512 268.492 267.968 268.22 268.56C267.948 269.136 267.812 269.8 267.812 270.552C267.812 271.304 267.948 271.968 268.22 272.544C268.492 273.104 268.868 273.544 269.348 273.864C269.844 274.184 270.412 274.344 271.052 274.344ZM275.348 269.592H280.94V271.704H275.348V269.592ZM280.292 262.536H282.908V283.248H280.292V262.536ZM305.14 272.304V274.224H285.796V272.304H305.14ZM302.236 275.544V280.416H291.22V282.504H288.58V278.712H299.644V277.368H288.556V275.544H302.236ZM302.884 281.904V283.728H288.58V281.904H302.884ZM302.212 263.04V267.864H291.436V269.832H288.868V266.16H299.62V264.864H288.82V263.04H302.212ZM302.62 269.232V271.08H288.868V269.232H302.62ZM329.592 262.584V274.032H326.952V262.584H329.592ZM318.912 275.04V277.248H327V275.04H329.592V283.68H316.296V275.04H318.912ZM318.912 281.568H327V279.288H318.912V281.568ZM318.048 273.84C316.976 273.84 316.016 273.616 315.168 273.168C314.336 272.72 313.68 272.096 313.2 271.296C312.736 270.496 312.504 269.584 312.504 268.56C312.504 267.536 312.736 266.624 313.2 265.824C313.68 265.008 314.336 264.376 315.168 263.928C316.016 263.48 316.976 263.256 318.048 263.256C319.12 263.256 320.072 263.48 320.904 263.928C321.736 264.376 322.384 265.008 322.848 265.824C323.328 266.624 323.568 267.536 323.568 268.56C323.568 269.584 323.328 270.496 322.848 271.296C322.384 272.096 321.736 272.72 320.904 273.168C320.072 273.616 319.12 273.84 318.048 273.84ZM318.048 271.68C318.928 271.68 319.632 271.392 320.16 270.816C320.704 270.24 320.976 269.488 320.976 268.56C320.976 267.616 320.704 266.856 320.16 266.28C319.632 265.688 318.928 265.392 318.048 265.392C317.168 265.392 316.456 265.688 315.912 266.28C315.368 266.856 315.096 267.616 315.096 268.56C315.096 269.488 315.368 270.24 315.912 270.816C316.456 271.392 317.168 271.68 318.048 271.68ZM347.721 278.592H336.585V276.504H350.385V283.968H347.721V278.592ZM333.657 273.432V268.656H336.273V273.432H333.657ZM343.881 274.392H333.657V272.232H343.881V274.392ZM342.873 269.856H333.657V267.816H342.873V269.856ZM342.873 265.752H333.657V263.616H342.873V265.752ZM340.257 268.872V264.6H342.873V268.872H340.257ZM344.145 269.976H348.249V272.088H344.145V269.976ZM344.145 265.464H348.249V267.6H344.145V265.464ZM347.721 262.584H350.385V275.472H347.721V262.584ZM371.489 262.56V283.2H368.993V262.56H371.489ZM369.809 271.488V273.624H366.089V271.488H369.809ZM366.929 263.016V282.24H364.457V263.016H366.929ZM363.209 265.416V267.528H353.201V265.416H363.209ZM359.513 262.968V266.424H356.897V262.968H359.513ZM358.193 278.088C357.281 278.088 356.465 277.88 355.745 277.464C355.025 277.048 354.457 276.472 354.041 275.736C353.641 274.984 353.441 274.136 353.441 273.192C353.441 272.248 353.641 271.408 354.041 270.672C354.457 269.92 355.025 269.336 355.745 268.92C356.465 268.504 357.281 268.296 358.193 268.296C359.121 268.296 359.945 268.504 360.665 268.92C361.385 269.336 361.945 269.92 362.345 270.672C362.761 271.408 362.969 272.248 362.969 273.192C362.969 274.136 362.761 274.984 362.345 275.736C361.945 276.472 361.385 277.048 360.665 277.464C359.945 277.88 359.121 278.088 358.193 278.088ZM358.193 275.904C358.897 275.904 359.465 275.656 359.897 275.16C360.329 274.664 360.545 274.008 360.545 273.192C360.545 272.376 360.329 271.72 359.897 271.224C359.465 270.728 358.897 270.48 358.193 270.48C357.489 270.48 356.921 270.728 356.489 271.224C356.073 271.72 355.865 272.376 355.865 273.192C355.865 274.008 356.073 274.664 356.489 275.16C356.921 275.656 357.489 275.904 358.193 275.904ZM384.841 276V283.968H382.225V276H384.841ZM393.241 274.512V276.648H373.921V274.512H393.241ZM375.457 270.96L380.905 267.576C381.449 267.24 381.801 266.968 381.961 266.76C382.121 266.536 382.201 266.272 382.201 265.968V263.928H384.601V265.968C384.601 266.576 384.425 267.2 384.073 267.84C383.721 268.48 383.081 269.08 382.153 269.64L376.753 273.024L375.457 270.96ZM390.337 273.024L384.937 269.64C384.009 269.08 383.369 268.48 383.017 267.84C382.665 267.2 382.489 266.576 382.489 265.968V263.928H384.889V265.968C384.889 266.272 384.969 266.536 385.129 266.76C385.289 266.968 385.641 267.24 386.185 267.576L391.633 270.96L390.337 273.024ZM390.841 265.56H376.249V263.4H390.841V265.56ZM406.714 269.208V271.368H402.97V269.208H406.714ZM412.834 262.56V283.2H410.314V262.56H412.834ZM408.418 262.968V282.192H405.97V262.968H408.418ZM394.402 276.816L397.546 271.488C397.914 270.88 398.154 270.352 398.266 269.904C398.394 269.456 398.458 268.928 398.458 268.32V263.952H400.906V268.32C400.906 269.072 400.818 269.8 400.642 270.504C400.466 271.192 400.138 271.936 399.658 272.736L396.514 278.064L394.402 276.816ZM402.97 278.064L399.802 272.736C399.322 271.936 398.994 271.192 398.818 270.504C398.642 269.8 398.554 269.072 398.554 268.32V263.952H401.002V268.32C401.002 268.928 401.058 269.456 401.17 269.904C401.298 270.352 401.546 270.88 401.914 271.488L405.082 276.816L402.97 278.064ZM422.898 273.456V278.88H420.282V273.456H422.898ZM429.498 273.456V278.88H426.858V273.456H429.498ZM434.562 278.712V280.848H415.218V278.712H434.562ZM418.362 269.376C418.362 268.192 418.634 267.136 419.178 266.208C419.738 265.264 420.506 264.536 421.482 264.024C422.474 263.496 423.594 263.232 424.842 263.232C426.106 263.232 427.234 263.496 428.226 264.024C429.234 264.536 430.01 265.264 430.554 266.208C431.114 267.136 431.394 268.192 431.394 269.376C431.394 270.56 431.114 271.624 430.554 272.568C430.01 273.496 429.234 274.224 428.226 274.752C427.234 275.264 426.106 275.52 424.842 275.52C423.594 275.52 422.474 275.264 421.482 274.752C420.506 274.224 419.738 273.496 419.178 272.568C418.634 271.624 418.362 270.56 418.362 269.376ZM420.954 269.376C420.954 270.144 421.114 270.832 421.434 271.44C421.77 272.032 422.226 272.496 422.802 272.832C423.394 273.168 424.074 273.336 424.842 273.336C425.626 273.336 426.314 273.168 426.906 272.832C427.514 272.496 427.978 272.032 428.298 271.44C428.634 270.832 428.802 270.144 428.802 269.376C428.802 268.608 428.634 267.928 428.298 267.336C427.978 266.728 427.514 266.256 426.906 265.92C426.314 265.584 425.626 265.416 424.842 265.416C424.074 265.416 423.394 265.584 422.802 265.92C422.226 266.256 421.77 266.728 421.434 267.336C421.114 267.928 420.954 268.608 420.954 269.376ZM438.003 279.576C438.435 279.576 438.787 279.72 439.059 280.008C439.331 280.28 439.467 280.632 439.467 281.064C439.467 281.512 439.331 281.872 439.059 282.144C438.787 282.432 438.435 282.576 438.003 282.576C437.555 282.576 437.187 282.432 436.899 282.144C436.627 281.872 436.491 281.512 436.491 281.064C436.491 280.632 436.627 280.28 436.899 280.008C437.187 279.72 437.555 279.576 438.003 279.576Z" fill="#9C9CA1"/>
</svg>
