<svg width="130" height="58" viewBox="0 0 130 58" fill="none" xmlns="http://www.w3.org/2000/svg">
<rect x="0.5" y="0.5" width="129" height="57" rx="28.5" fill="#FE902F"/>
<rect x="0.5" y="0.5" width="129" height="57" rx="28.5" stroke="#FE902F"/>
<path d="M62.4527 21.528V30.726H60.8867V21.528H62.4527ZM64.7567 25.524V26.838H61.7867V25.524H64.7567ZM54.3707 31.41V33.03H60.9047V31.41H62.4527V37.152H52.8227V31.41H54.3707ZM54.3707 35.892H60.9047V34.236H54.3707V35.892ZM59.2667 24.372H50.5367V23.094H59.2667V24.372ZM55.6667 21.492V23.976H54.1367V21.492H55.6667ZM51.2027 26.64C51.2027 25.992 51.4007 25.398 51.7967 24.858C52.1927 24.318 52.6787 23.898 53.2547 23.598C53.8307 23.286 54.3707 23.13 54.8747 23.13C55.4027 23.13 55.9607 23.286 56.5487 23.598C57.1367 23.898 57.6287 24.318 58.0247 24.858C58.4327 25.398 58.6367 25.992 58.6367 26.64C58.6367 27.312 58.4747 27.912 58.1507 28.44C57.8387 28.956 57.3947 29.364 56.8187 29.664C56.2427 29.952 55.5947 30.096 54.8747 30.096C54.1667 30.096 53.5367 29.952 52.9847 29.664C52.4327 29.364 51.9947 28.956 51.6707 28.44C51.3587 27.912 51.2027 27.312 51.2027 26.64ZM52.6787 26.64C52.6787 27.288 52.8827 27.822 53.2907 28.242C53.6987 28.65 54.2267 28.854 54.8747 28.854C55.5467 28.854 56.0987 28.65 56.5307 28.242C56.9627 27.822 57.1787 27.288 57.1787 26.64C57.1787 25.968 56.9627 25.422 56.5307 25.002C56.0987 24.582 55.5467 24.372 54.8747 24.372C54.2267 24.372 53.6987 24.582 53.2907 25.002C52.8827 25.422 52.6787 25.968 52.6787 26.64ZM76.988 32.904H68.474V31.662H78.554V37.314H76.988V32.904ZM66.008 28.8C67.736 28.452 69.086 27.846 70.058 26.982C71.03 26.106 71.516 24.9 71.516 23.364V22.554H72.974V23.364C72.974 25.248 72.356 26.766 71.12 27.918C69.896 29.058 68.288 29.826 66.296 30.222L66.008 28.8ZM72.956 27.36H77.168V28.638H72.956V27.36ZM72.974 23.436H66.386V22.158H72.974V23.436ZM72.362 23.994H77.276V25.254H72.362V23.994ZM76.988 21.51H78.554V30.798H76.988V21.51Z" fill="#FFFDFB"/>
</svg>
