<svg width="83" height="83" viewBox="0 0 83 83" fill="none" xmlns="http://www.w3.org/2000/svg">
<g filter="url(#filter0_d_1629_3652)">
<rect x="10.7227" y="10.5" width="62" height="62" rx="31" fill="#DF3030" fill-opacity="0.8" shape-rendering="crispEdges"/>
<path d="M39.1754 34.028V43.226H37.6094V34.028H39.1754ZM41.4794 38.024V39.338H38.5094V38.024H41.4794ZM31.0934 43.91V45.53H37.6274V43.91H39.1754V49.652H29.5454V43.91H31.0934ZM31.0934 48.392H37.6274V46.736H31.0934V48.392ZM35.9894 36.872H27.2594V35.594H35.9894V36.872ZM32.3894 33.992V36.476H30.8594V33.992H32.3894ZM27.9254 39.14C27.9254 38.492 28.1234 37.898 28.5194 37.358C28.9154 36.818 29.4014 36.398 29.9774 36.098C30.5534 35.786 31.0934 35.63 31.5974 35.63C32.1254 35.63 32.6834 35.786 33.2714 36.098C33.8594 36.398 34.3514 36.818 34.7474 37.358C35.1554 37.898 35.3594 38.492 35.3594 39.14C35.3594 39.812 35.1974 40.412 34.8734 40.94C34.5614 41.456 34.1174 41.864 33.5414 42.164C32.9654 42.452 32.3174 42.596 31.5974 42.596C30.8894 42.596 30.2594 42.452 29.7074 42.164C29.1554 41.864 28.7174 41.456 28.3934 40.94C28.0814 40.412 27.9254 39.812 27.9254 39.14ZM29.4014 39.14C29.4014 39.788 29.6054 40.322 30.0134 40.742C30.4214 41.15 30.9494 41.354 31.5974 41.354C32.2694 41.354 32.8214 41.15 33.2534 40.742C33.6854 40.322 33.9014 39.788 33.9014 39.14C33.9014 38.468 33.6854 37.922 33.2534 37.502C32.8214 37.082 32.2694 36.872 31.5974 36.872C30.9494 36.872 30.4214 37.082 30.0134 37.502C29.6054 37.922 29.4014 38.468 29.4014 39.14ZM53.7107 45.404H45.1967V44.162H55.2767V49.814H53.7107V45.404ZM42.7307 41.3C44.4587 40.952 45.8087 40.346 46.7807 39.482C47.7527 38.606 48.2387 37.4 48.2387 35.864V35.054H49.6967V35.864C49.6967 37.748 49.0787 39.266 47.8427 40.418C46.6187 41.558 45.0107 42.326 43.0187 42.722L42.7307 41.3ZM49.6787 39.86H53.8907V41.138H49.6787V39.86ZM49.6967 35.936H43.1087V34.658H49.6967V35.936ZM49.0847 36.494H53.9987V37.754H49.0847V36.494ZM53.7107 34.01H55.2767V43.298H53.7107V34.01Z" fill="#FFFDFB"/>
</g>
<defs>
<filter id="filter0_d_1629_3652" x="0.722656" y="0.5" width="82" height="82" filterUnits="userSpaceOnUse" color-interpolation-filters="sRGB">
<feFlood flood-opacity="0" result="BackgroundImageFix"/>
<feColorMatrix in="SourceAlpha" type="matrix" values="0 0 0 0 0 0 0 0 0 0 0 0 0 0 0 0 0 0 127 0" result="hardAlpha"/>
<feOffset/>
<feGaussianBlur stdDeviation="5"/>
<feComposite in2="hardAlpha" operator="out"/>
<feColorMatrix type="matrix" values="0 0 0 0 0.87451 0 0 0 0 0.188235 0 0 0 0 0.188235 0 0 0 0.6 0"/>
<feBlend mode="normal" in2="BackgroundImageFix" result="effect1_dropShadow_1629_3652"/>
<feBlend mode="normal" in="SourceGraphic" in2="effect1_dropShadow_1629_3652" result="shape"/>
</filter>
</defs>
</svg>
