<svg width="59" height="59" viewBox="0 0 59 59" fill="none" xmlns="http://www.w3.org/2000/svg">
<circle cx="29.5" cy="29.5" r="28" stroke="#FF8A00" stroke-width="3"/>
<path d="M40.6538 15.3037H18.3462C16.4981 15.3037 15 17.0442 15 19.1912V42.5162C15 44.6632 16.4981 46.4037 18.3462 46.4037H40.6538C42.5019 46.4037 44 44.6632 44 42.5162V19.1912C44 17.0442 42.5019 15.3037 40.6538 15.3037Z" stroke="#FF8A00" stroke-width="3" stroke-linejoin="round"/>
<path d="M32.5 29.126C33.3284 29.126 34 28.3524 34 27.3982C34 26.444 33.3284 25.6704 32.5 25.6704C31.6716 25.6704 31 26.444 31 27.3982C31 28.3524 31.6716 29.126 32.5 29.126Z" fill="#FF8A00"/>
<path d="M38 29.126C39.1046 29.126 40 28.3524 40 27.3982C40 26.444 39.1046 25.6704 38 25.6704C36.8954 25.6704 36 26.444 36 27.3982C36 28.3524 36.8954 29.126 38 29.126Z" fill="#FF8A00"/>
<path d="M32.5 36.0371C33.3284 36.0371 34 35.2635 34 34.3093C34 33.3551 33.3284 32.5815 32.5 32.5815C31.6716 32.5815 31 33.3551 31 34.3093C31 35.2635 31.6716 36.0371 32.5 36.0371Z" fill="#FF8A00"/>
<path d="M38 36.0371C39.1046 36.0371 40 35.2635 40 34.3093C40 33.3551 39.1046 32.5815 38 32.5815C36.8954 32.5815 36 33.3551 36 34.3093C36 35.2635 36.8954 36.0371 38 36.0371Z" fill="#FF8A00"/>
<path d="M21 36.0371C22.1046 36.0371 23 35.2635 23 34.3093C23 33.3551 22.1046 32.5815 21 32.5815C19.8954 32.5815 19 33.3551 19 34.3093C19 35.2635 19.8954 36.0371 21 36.0371Z" fill="#FF8A00"/>
<path d="M26.5 36.0371C27.3284 36.0371 28 35.2635 28 34.3093C28 33.3551 27.3284 32.5815 26.5 32.5815C25.6716 32.5815 25 33.3551 25 34.3093C25 35.2635 25.6716 36.0371 26.5 36.0371Z" fill="#FF8A00"/>
<path d="M21 42.9481C22.1046 42.9481 23 41.9167 23 40.6444C23 39.3721 22.1046 38.3407 21 38.3407C19.8954 38.3407 19 39.3721 19 40.6444C19 41.9167 19.8954 42.9481 21 42.9481Z" fill="#FF8A00"/>
<path d="M26.5 42.9481C27.3284 42.9481 28 41.9167 28 40.6444C28 39.3721 27.3284 38.3407 26.5 38.3407C25.6716 38.3407 25 39.3721 25 40.6444C25 41.9167 25.6716 42.9481 26.5 42.9481Z" fill="#FF8A00"/>
<path d="M32.5 42.9481C33.3284 42.9481 34 41.9167 34 40.6444C34 39.3721 33.3284 38.3407 32.5 38.3407C31.6716 38.3407 31 39.3721 31 40.6444C31 41.9167 31.6716 42.9481 32.5 42.9481Z" fill="#FF8A00"/>
<path d="M21 13V15.3037M38 13V15.3037" stroke="#FF8A00" stroke-width="3" stroke-linecap="round" stroke-linejoin="round"/>
<path d="M44 22.2148H15" stroke="#FF8A00" stroke-width="3" stroke-linejoin="round"/>
</svg>
