<svg width="162" height="58" viewBox="0 0 162 58" fill="none" xmlns="http://www.w3.org/2000/svg">
<rect x="0.5" y="0.5" width="161" height="57" rx="28.5" fill="#FE902F"/>
<rect x="0.5" y="0.5" width="161" height="57" rx="28.5" stroke="#FE902F"/>
<path d="M70.6256 21.528V36.828H69.0596V21.528H70.6256ZM57.7556 32.004L60.6536 27.612C61.0016 27.084 61.2356 26.652 61.3556 26.316C61.4756 25.98 61.5356 25.608 61.5356 25.2V23.472H62.9576V25.2C62.9576 25.74 62.8736 26.256 62.7056 26.748C62.5376 27.228 62.2496 27.774 61.8416 28.386L58.9616 32.778L57.7556 32.004ZM65.5676 32.778L62.6876 28.386C62.2796 27.774 61.9916 27.228 61.8236 26.748C61.6676 26.256 61.5896 25.74 61.5896 25.2V23.472H63.0116V25.2C63.0116 25.632 63.0656 26.016 63.1736 26.352C63.2936 26.676 63.5276 27.096 63.8756 27.612L66.7736 32.004L65.5676 32.778ZM66.2156 24.21H58.3136V22.932H66.2156V24.21ZM77.8529 27.684C77.1449 27.684 76.5149 27.564 75.9629 27.324C75.4109 27.084 74.9789 26.736 74.6669 26.28C74.3549 25.812 74.1989 25.266 74.1989 24.642C74.1989 24.03 74.3549 23.502 74.6669 23.058C74.9789 22.602 75.4049 22.254 75.9449 22.014C76.4969 21.762 77.1269 21.636 77.8349 21.636C78.5549 21.636 79.1849 21.762 79.7249 22.014C80.2769 22.254 80.7089 22.602 81.0209 23.058C81.3329 23.502 81.4889 24.036 81.4889 24.66C81.4889 25.272 81.3329 25.812 81.0209 26.28C80.7089 26.736 80.2769 27.084 79.7249 27.324C79.1849 27.564 78.5609 27.684 77.8529 27.684ZM75.4949 32.544H77.0429V36.216H75.4949V32.544ZM75.4949 35.748H85.8809V37.008H75.4949V35.748ZM77.0429 29.214H78.6089V32.706H77.0429V29.214ZM83.1989 29.718H73.0649V28.476H83.1989V29.718ZM81.0569 30.816H84.6389V31.932H81.0569V30.816ZM77.8529 26.406C78.5249 26.406 79.0649 26.25 79.4729 25.938C79.8929 25.626 80.1029 25.194 80.1029 24.642C80.1029 24.114 79.8929 23.7 79.4729 23.4C79.0649 23.1 78.5249 22.95 77.8529 22.95C77.1689 22.95 76.6229 23.1 76.2149 23.4C75.8069 23.7 75.6029 24.114 75.6029 24.642C75.6029 25.194 75.8069 25.626 76.2149 25.938C76.6349 26.25 77.1809 26.406 77.8529 26.406ZM84.3149 21.51H85.8809V33.714H84.3149V21.51ZM100.524 26.838V28.116H95.9881V26.838H100.524ZM101.28 21.492V36.846H99.7501V21.492H101.28ZM88.0141 32.022L90.9661 28.062C91.3141 27.594 91.5481 27.174 91.6681 26.802C91.7881 26.418 91.8481 25.998 91.8481 25.542V22.572H93.2701V25.542C93.2701 26.118 93.1861 26.676 93.0181 27.216C92.8501 27.756 92.5501 28.32 92.1181 28.908L89.1661 32.85L88.0141 32.022ZM96.0061 32.85L93.0541 28.908C92.6101 28.32 92.3041 27.756 92.1361 27.216C91.9801 26.676 91.9021 26.118 91.9021 25.542V22.572H93.3241V25.542C93.3241 25.998 93.3781 26.418 93.4861 26.802C93.6061 27.174 93.8401 27.594 94.1881 28.062L97.1401 32.022L96.0061 32.85ZM112.584 29.178C111.912 29.178 111.306 29.046 110.766 28.782C110.238 28.518 109.824 28.146 109.524 27.666C109.224 27.174 109.074 26.622 109.074 26.01C109.074 25.434 109.266 24.9 109.65 24.408C110.046 23.904 110.52 23.514 111.072 23.238C111.636 22.95 112.14 22.806 112.584 22.806C113.064 22.806 113.586 22.95 114.15 23.238C114.726 23.514 115.212 23.904 115.608 24.408C116.004 24.9 116.202 25.434 116.202 26.01C116.202 26.622 116.046 27.174 115.734 27.666C115.434 28.146 115.008 28.518 114.456 28.782C113.904 29.046 113.28 29.178 112.584 29.178ZM118.506 33.858H110.154V32.616L120.054 32.634V37.368H118.506V33.858ZM117.516 31.374H107.778V30.132H117.516V31.374ZM111.828 28.782H113.376V30.654H111.828V28.782ZM112.584 27.936C113.22 27.936 113.736 27.756 114.132 27.396C114.54 27.036 114.744 26.574 114.744 26.01C114.744 25.458 114.54 25.008 114.132 24.66C113.736 24.312 113.22 24.138 112.584 24.138C111.984 24.138 111.492 24.312 111.108 24.66C110.736 25.008 110.55 25.458 110.55 26.01C110.55 26.574 110.736 27.036 111.108 27.396C111.492 27.756 111.984 27.936 112.584 27.936ZM117.012 24.048H108.228V22.77H117.012V24.048ZM111.864 21.546H113.376V23.724H111.864V21.546ZM118.506 21.528H120.054V31.86H118.506V21.528ZM119.442 26.28H122.358V27.576H119.442V26.28ZM136.119 21.528V32.238H134.553V21.528H136.119ZM136.245 35.748V37.008H126.291V35.748H136.245ZM127.857 31.824V36.162H126.291V31.824H127.857ZM127.569 29.79C126.801 29.79 126.117 29.634 125.517 29.322C124.917 28.998 124.449 28.548 124.113 27.972C123.789 27.396 123.627 26.742 123.627 26.01C123.627 25.278 123.789 24.624 124.113 24.048C124.449 23.46 124.917 23.01 125.517 22.698C126.117 22.374 126.801 22.212 127.569 22.212C128.337 22.212 129.021 22.374 129.621 22.698C130.221 23.01 130.689 23.46 131.025 24.048C131.361 24.624 131.529 25.278 131.529 26.01C131.529 26.742 131.361 27.396 131.025 27.972C130.689 28.548 130.221 28.998 129.621 29.322C129.021 29.634 128.337 29.79 127.569 29.79ZM127.569 28.512C128.289 28.512 128.871 28.278 129.315 27.81C129.759 27.342 129.981 26.736 129.981 25.992C129.981 25.26 129.759 24.66 129.315 24.192C128.871 23.724 128.289 23.49 127.569 23.49C126.849 23.49 126.267 23.724 125.823 24.192C125.379 24.66 125.157 25.266 125.157 26.01C125.157 26.754 125.379 27.36 125.823 27.828C126.279 28.284 126.861 28.512 127.569 28.512Z" fill="#FFFDFB"/>
<path d="M31 19.4719C31 18.234 32.0035 17.2305 33.2414 17.2305H48.035C49.2729 17.2305 50.2764 18.234 50.2764 19.4719V39.6449C50.2764 40.8828 49.2729 41.8863 48.035 41.8863H33.2414C32.0035 41.8863 31 40.8828 31 39.6449V19.4719Z" fill="white"/>
<g filter="url(#filter0_b_1716_4096)">
<path d="M59.8614 13.0246C61.2275 14.3906 61.2275 16.6055 59.8614 17.9716L57.3974 20.4355L46.9422 30.8907C46.3819 31.4511 45.6797 31.8487 44.9109 32.0409L40.9038 33.0427C40.2633 33.2028 39.6832 32.6226 39.8433 31.9821L40.8451 27.9751C41.0373 27.2063 41.4348 26.5041 41.9952 25.9437L52.4504 15.4885L54.9144 13.0246C56.2805 11.6585 58.4953 11.6585 59.8614 13.0246Z" fill="url(#paint0_linear_1716_4096)" fill-opacity="0.3"/>
</g>
<path fill-rule="evenodd" clip-rule="evenodd" d="M59.8086 17.9187C61.1455 16.5818 61.1455 14.4143 59.8086 13.0774C58.4717 11.7405 56.3041 11.7405 54.9672 13.0774L42.0481 25.9966C41.4972 26.5474 41.1065 27.2375 40.9176 27.9932L39.9158 32.0003C39.7694 32.586 40.2999 33.1166 40.8857 32.9702L44.8927 31.9684C45.6484 31.7795 46.3386 31.3887 46.8894 30.8379L59.8086 17.9187ZM59.8614 17.9716C61.2275 16.6055 61.2275 14.3906 59.8614 13.0246C58.4953 11.6585 56.2805 11.6585 54.9144 13.0246L41.9952 25.9437C41.4348 26.5041 41.0373 27.2063 40.8451 27.9751L39.8433 31.9821C39.6832 32.6226 40.2633 33.2028 40.9038 33.0427L44.9109 32.0409C45.6797 31.8487 46.3819 31.4511 46.9422 30.8907L59.8614 17.9716Z" fill="url(#paint1_linear_1716_4096)"/>
<path fill-rule="evenodd" clip-rule="evenodd" d="M59.8086 17.9187C61.1455 16.5818 61.1455 14.4143 59.8086 13.0774C58.4717 11.7405 56.3041 11.7405 54.9672 13.0774L42.0481 25.9966C41.4972 26.5474 41.1065 27.2375 40.9176 27.9932L39.9158 32.0003C39.7694 32.586 40.2999 33.1166 40.8857 32.9702L44.8927 31.9684C45.6484 31.7795 46.3386 31.3887 46.8894 30.8379L59.8086 17.9187ZM59.8614 17.9716C61.2275 16.6055 61.2275 14.3906 59.8614 13.0246C58.4953 11.6585 56.2805 11.6585 54.9144 13.0246L41.9952 25.9437C41.4348 26.5041 41.0373 27.2063 40.8451 27.9751L39.8433 31.9821C39.6832 32.6226 40.2633 33.2028 40.9038 33.0427L44.9109 32.0409C45.6797 31.8487 46.3819 31.4511 46.9422 30.8907L59.8614 17.9716Z" fill="url(#paint2_radial_1716_4096)"/>
<path d="M41.9712 31.9931C41.3122 32.1638 40.7123 31.5638 40.883 30.9048C41.0562 30.2363 41.8903 30.0091 42.3786 30.4974C42.867 30.9857 42.6398 31.8198 41.9712 31.9931Z" fill="white"/>
<defs>
<filter id="filter0_b_1716_4096" x="9.81641" y="-18" width="81.0703" height="81.0703" filterUnits="userSpaceOnUse" color-interpolation-filters="sRGB">
<feFlood flood-opacity="0" result="BackgroundImageFix"/>
<feGaussianBlur in="BackgroundImageFix" stdDeviation="15"/>
<feComposite in2="SourceAlpha" operator="in" result="effect1_backgroundBlur_1716_4096"/>
<feBlend mode="normal" in="SourceGraphic" in2="effect1_backgroundBlur_1716_4096" result="shape"/>
</filter>
<linearGradient id="paint0_linear_1716_4096" x1="41.444" y1="32.406" x2="49.0892" y2="8.26422" gradientUnits="userSpaceOnUse">
<stop offset="0.44717" stop-color="white" stop-opacity="0.9"/>
<stop offset="0.67" stop-color="white" stop-opacity="0.912777"/>
<stop offset="0.715115" stop-color="white" stop-opacity="0.955296"/>
<stop offset="1" stop-color="white" stop-opacity="0.9"/>
</linearGradient>
<linearGradient id="paint1_linear_1716_4096" x1="42.8486" y1="11.2475" x2="62.5977" y2="22.7784" gradientUnits="userSpaceOnUse">
<stop offset="0.04" stop-color="#FFFCFA"/>
<stop offset="0.19" stop-color="#FE902F" stop-opacity="0.615121"/>
<stop offset="0.82" stop-color="#FE902F"/>
<stop offset="1" stop-color="white" stop-opacity="0.1"/>
</linearGradient>
<radialGradient id="paint2_radial_1716_4096" cx="0" cy="0" r="1" gradientUnits="userSpaceOnUse" gradientTransform="translate(42.9652 32.3798) rotate(-50.9773) scale(16.5465 27.0555)">
<stop stop-color="white"/>
<stop offset="1" stop-color="white" stop-opacity="0"/>
</radialGradient>
</defs>
</svg>
