<svg width="187" height="58" viewBox="0 0 187 58" fill="none" xmlns="http://www.w3.org/2000/svg">
<rect width="187" height="58" rx="29" fill="#FE902F"/>
<path d="M83.4647 29.178C82.7927 29.178 82.1867 29.046 81.6467 28.782C81.1187 28.518 80.7047 28.146 80.4047 27.666C80.1047 27.174 79.9547 26.622 79.9547 26.01C79.9547 25.434 80.1467 24.9 80.5307 24.408C80.9267 23.904 81.4007 23.514 81.9527 23.238C82.5167 22.95 83.0207 22.806 83.4647 22.806C83.9447 22.806 84.4667 22.95 85.0307 23.238C85.6067 23.514 86.0927 23.904 86.4887 24.408C86.8847 24.9 87.0827 25.434 87.0827 26.01C87.0827 26.622 86.9267 27.174 86.6147 27.666C86.3147 28.146 85.8887 28.518 85.3367 28.782C84.7847 29.046 84.1607 29.178 83.4647 29.178ZM89.3867 33.858H81.0347V32.616L90.9347 32.634V37.368H89.3867V33.858ZM88.3967 31.374H78.6587V30.132H88.3967V31.374ZM82.7087 28.782H84.2567V30.654H82.7087V28.782ZM83.4647 27.936C84.1007 27.936 84.6167 27.756 85.0127 27.396C85.4207 27.036 85.6247 26.574 85.6247 26.01C85.6247 25.458 85.4207 25.008 85.0127 24.66C84.6167 24.312 84.1007 24.138 83.4647 24.138C82.8647 24.138 82.3727 24.312 81.9887 24.66C81.6167 25.008 81.4307 25.458 81.4307 26.01C81.4307 26.574 81.6167 27.036 81.9887 27.396C82.3727 27.756 82.8647 27.936 83.4647 27.936ZM87.8927 24.048H79.1087V22.77H87.8927V24.048ZM82.7447 21.546H84.2567V23.724H82.7447V21.546ZM89.3867 21.528H90.9347V31.86H89.3867V21.528ZM90.3227 26.28H93.2387V27.576H90.3227V26.28ZM107 21.528V32.238H105.434V21.528H107ZM107.126 35.748V37.008H97.172V35.748H107.126ZM98.738 31.824V36.162H97.172V31.824H98.738ZM98.45 29.79C97.682 29.79 96.998 29.634 96.398 29.322C95.798 28.998 95.33 28.548 94.994 27.972C94.67 27.396 94.508 26.742 94.508 26.01C94.508 25.278 94.67 24.624 94.994 24.048C95.33 23.46 95.798 23.01 96.398 22.698C96.998 22.374 97.682 22.212 98.45 22.212C99.218 22.212 99.902 22.374 100.502 22.698C101.102 23.01 101.57 23.46 101.906 24.048C102.242 24.624 102.41 25.278 102.41 26.01C102.41 26.742 102.242 27.396 101.906 27.972C101.57 28.548 101.102 28.998 100.502 29.322C99.902 29.634 99.218 29.79 98.45 29.79ZM98.45 28.512C99.17 28.512 99.752 28.278 100.196 27.81C100.64 27.342 100.862 26.736 100.862 25.992C100.862 25.26 100.64 24.66 100.196 24.192C99.752 23.724 99.17 23.49 98.45 23.49C97.73 23.49 97.148 23.724 96.704 24.192C96.26 24.66 96.038 25.266 96.038 26.01C96.038 26.754 96.26 27.36 96.704 27.828C97.16 28.284 97.742 28.512 98.45 28.512Z" fill="white"/>
</svg>
