<svg width="35" height="34" viewBox="0 0 35 34" fill="none" xmlns="http://www.w3.org/2000/svg">
<g id="lets-icons:time-fill">
<path id="Vector" fill-rule="evenodd" clip-rule="evenodd" d="M17.5 29.75C19.2236 29.75 20.9303 29.4202 22.5227 28.7795C24.1151 28.1387 25.562 27.1996 26.7808 26.0156C27.9995 24.8317 28.9663 23.4261 29.6259 21.8792C30.2855 20.3323 30.625 18.6744 30.625 17C30.625 15.3256 30.2855 13.6677 29.6259 12.1208C28.9663 10.5739 27.9995 9.16833 26.7808 7.98439C25.562 6.80044 24.1151 5.86128 22.5227 5.22054C20.9303 4.57979 19.2236 4.25 17.5 4.25C14.019 4.25 10.6806 5.5933 8.21922 7.98439C5.75781 10.3755 4.375 13.6185 4.375 17C4.375 20.3815 5.75781 23.6245 8.21922 26.0156C10.6806 28.4067 14.019 29.75 17.5 29.75ZM18.9583 9.20833C18.9583 8.83261 18.8047 8.47228 18.5312 8.2066C18.2577 7.94092 17.8868 7.79167 17.5 7.79167C17.1132 7.79167 16.7423 7.94092 16.4688 8.2066C16.1953 8.47228 16.0417 8.83261 16.0417 9.20833V16.6458C16.0417 17.6233 16.8583 18.4167 17.8646 18.4167H22.6042C22.9909 18.4167 23.3619 18.2674 23.6354 18.0017C23.9089 17.7361 24.0625 17.3757 24.0625 17C24.0625 16.6243 23.9089 16.2639 23.6354 15.9983C23.3619 15.7326 22.9909 15.5833 22.6042 15.5833H18.9583V9.20833Z" fill="#E4E4E4"/>
</g>
</svg>
