<svg xmlns="http://www.w3.org/2000/svg" width="15" height="15" viewBox="0 0 12 12" fill="none">
  <path d="M9.75 1.5H2.25C2.05109 1.5 1.86032 1.57902 1.71967 1.71967C1.57902 1.86032 1.5 2.05109 1.5 2.25V9.75C1.5 9.94891 1.57902 10.1397 1.71967 10.2803C1.86032 10.421 2.05109 10.5 2.25 10.5H9.75C9.94891 10.5 10.1397 10.421 10.2803 10.2803C10.421 10.1397 10.5 9.94891 10.5 9.75V2.25C10.5 2.05109 10.421 1.86032 10.2803 1.71967C10.1397 1.57902 9.94891 1.5 9.75 1.5ZM9.75 9.75H2.25V2.25H9.75V9.75ZM7.76531 4.76531L6.53016 6L7.76531 7.23469C7.80015 7.26953 7.82779 7.31089 7.84665 7.35641C7.8655 7.40194 7.87521 7.45073 7.87521 7.5C7.87521 7.54927 7.8655 7.59806 7.84665 7.64359C7.82779 7.68911 7.80015 7.73047 7.76531 7.76531C7.73047 7.80015 7.68911 7.82779 7.64359 7.84665C7.59806 7.8655 7.54927 7.87521 7.5 7.87521C7.45073 7.87521 7.40194 7.8655 7.35641 7.84665C7.31089 7.82779 7.26953 7.80015 7.23469 7.76531L6 6.53016L4.76531 7.76531C4.73047 7.80015 4.68911 7.82779 4.64359 7.84665C4.59806 7.8655 4.54927 7.87521 4.5 7.87521C4.45073 7.87521 4.40194 7.8655 4.35641 7.84665C4.31089 7.82779 4.26953 7.80015 4.23469 7.76531C4.19985 7.73047 4.17221 7.68911 4.15335 7.64359C4.1345 7.59806 4.12479 7.54927 4.12479 7.5C4.12479 7.45073 4.1345 7.40194 4.15335 7.35641C4.17221 7.31089 4.19985 7.26953 4.23469 7.23469L5.46984 6L4.23469 4.76531C4.16432 4.69495 4.12479 4.59951 4.12479 4.5C4.12479 4.40049 4.16432 4.30505 4.23469 4.23469C4.30505 4.16432 4.40049 4.12479 4.5 4.12479C4.59951 4.12479 4.69495 4.16432 4.76531 4.23469L6 5.46984L7.23469 4.23469C7.26953 4.19985 7.31089 4.17221 7.35641 4.15335C7.40194 4.1345 7.45073 4.12479 7.5 4.12479C7.54927 4.12479 7.59806 4.1345 7.64359 4.15335C7.68911 4.17221 7.73047 4.19985 7.76531 4.23469C7.80015 4.26953 7.82779 4.31089 7.84665 4.35641C7.8655 4.40194 7.87521 4.45073 7.87521 4.5C7.87521 4.54927 7.8655 4.59806 7.84665 4.64359C7.82779 4.68911 7.80015 4.73047 7.76531 4.76531Z" fill="#9C9CA1"/>
</svg>